<svg width="17" height="16" viewBox="0 0 17 16" fill="none" xmlns="http://www.w3.org/2000/svg">
<path fill-rule="evenodd" clip-rule="evenodd" d="M12.4312 5.83676L8.33273 10.9441C8.30409 10.9799 8.27138 11.0124 8.23584 11.0412C7.95959 11.2643 7.55537 11.2208 7.33274 10.9441L5.28362 8.39025C5.07988 8.13654 5.10019 7.7695 5.33135 7.54017L5.58749 7.28484C5.82454 7.04901 6.20255 7.03439 6.45687 7.25173L7.70527 8.63014L11.4938 4.97247C11.6114 4.86237 11.7664 4.80062 11.9272 4.80001C12.2813 4.79778 12.5699 5.08358 12.5719 5.43823C12.5719 5.58326 12.5222 5.72403 12.4312 5.83676ZM8.85764 1.5C5.26781 1.5 2.35764 4.41017 2.35764 8C2.35764 11.5898 5.26781 14.5 8.85764 14.5C12.4475 14.5 15.3576 11.5898 15.3576 8C15.3576 4.41017 12.4475 1.5 8.85764 1.5Z" fill="#3DE35A"/>
</svg>
