<svg width="18" height="19" viewBox="0 0 18 19" fill="none" xmlns="http://www.w3.org/2000/svg">
<path fill-rule="evenodd" clip-rule="evenodd" d="M10.4524 2.6875H15.247C15.8355 2.6875 16.3125 3.16453 16.3125 3.75298V8.54766L14.7131 6.94825L11.4888 10.1725C11.0688 10.5924 10.3881 10.5924 9.96806 10.1725L8.82749 9.03196C8.40766 8.61196 8.40766 7.93119 8.82749 7.5112L12.0518 4.28691L10.4524 2.6875ZM12.5344 15.85C13.005 15.8486 13.3861 15.4675 13.3875 14.9969V9.74908L14.85 8.28658V15.5575C14.85 16.5228 14.0602 17.3125 13.095 17.3125H3.4425C2.47725 17.3125 1.6875 16.5228 1.6875 15.5575V5.90501C1.6875 4.93976 2.47725 4.15001 3.4425 4.15001H10.7134L9.25093 5.61251H4.00312C3.53253 5.61389 3.15138 5.99504 3.15 6.46563V14.9969C3.15138 15.4675 3.53253 15.8486 4.00312 15.85H12.5344Z" fill="black"/>
</svg>
