<svg width="24" height="24" viewBox="0 0 24 24" fill="none" xmlns="http://www.w3.org/2000/svg">
<path fill-rule="evenodd" clip-rule="evenodd" d="M14.4375 12.1875C14.4375 13.5337 13.3462 14.625 12 14.625C10.6538 14.625 9.5625 13.5337 9.5625 12.1875C9.5625 10.8413 10.6538 9.75 12 9.75C13.3462 9.75 14.4375 10.8413 14.4375 12.1875ZM7.125 12.1875C7.125 13.5337 6.03369 14.625 4.6875 14.625C3.34131 14.625 2.25 13.5337 2.25 12.1875C2.25 10.8413 3.34131 9.75 4.6875 9.75C5.33397 9.75 5.95395 10.0068 6.41107 10.4639C6.86819 10.921 7.125 11.541 7.125 12.1875ZM21.75 12.1875C21.75 13.5337 20.6587 14.625 19.3125 14.625C17.9663 14.625 16.875 13.5337 16.875 12.1875C16.875 10.8413 17.9663 9.75 19.3125 9.75C20.6587 9.75 21.75 10.8413 21.75 12.1875Z" fill="black"/>
</svg>
