<svg width="14" height="17" viewBox="0 0 14 17" fill="none" xmlns="http://www.w3.org/2000/svg">
<path fill-rule="evenodd" clip-rule="evenodd" d="M5.30135 0.404679C4.96643 0.496339 4.69682 0.76802 4.6089 1.10445C4.58984 1.17325 4.58019 1.30909 4.58019 1.5079V1.81005H3.31752C1.93618 1.81005 1.89603 1.81208 1.63201 1.92279C1.23586 2.0891 0.924065 2.44279 0.799806 2.87087C0.773124 2.96634 0.765246 3.09076 0.759656 3.59146L0.75 4.19931H13.1912L13.1891 3.6392C13.1871 3.16515 13.1815 3.058 13.1508 2.928C13.0494 2.49408 12.7777 2.15003 12.3836 1.95884C12.3724 1.95329 12.3617 1.94796 12.3514 1.94285C12.3051 1.91981 12.2675 1.90113 12.2286 1.88593C12.0613 1.82062 11.8688 1.81989 10.8486 1.816C10.7974 1.81581 10.744 1.8156 10.6885 1.81538L9.36252 1.80777V1.50765C9.36252 1.30884 9.35286 1.173 9.33381 1.10419C9.24385 0.763957 8.97424 0.494308 8.63348 0.404425C8.4861 0.364308 5.44035 0.366085 5.30084 0.404425L5.30135 0.404679ZM8.40653 1.57089V1.80982H5.53688V1.33197H8.40653V1.57089ZM1.71056 10.6511V10.6514V16.625H12.233V4.67744H1.71056V10.6511ZM4.32383 6.17024C4.42903 6.22381 4.53042 6.34416 4.56116 6.45131C4.57463 6.49905 4.58022 7.86583 4.58022 10.653C4.58022 14.3003 4.57641 14.7954 4.55151 14.8681C4.51136 14.9828 4.44427 15.0631 4.33729 15.126C4.25877 15.1738 4.22625 15.1814 4.10199 15.1814C3.97951 15.1814 3.9452 15.1738 3.86846 15.1278C3.81866 15.0991 3.75564 15.0476 3.73074 15.013C3.72381 15.0041 3.71733 14.9967 3.71126 14.9898L3.71124 14.9898C3.70706 14.985 3.70308 14.9805 3.69929 14.9758C3.62306 14.8818 3.62307 14.726 3.62345 11.4432V11.4431V11.4431L3.6235 10.6527L3.62334 9.63838C3.62256 6.56687 3.62252 6.3813 3.71479 6.29805C3.72071 6.29271 3.72701 6.28779 3.73372 6.28255L3.73375 6.28252L3.73377 6.28252C3.74391 6.27459 3.75499 6.26595 3.76707 6.25403C3.91446 6.10676 4.13629 6.07248 4.32383 6.16998V6.17024ZM7.41738 6.42646C7.37723 6.30611 7.25475 6.18373 7.1343 6.14361V6.14387C6.9084 6.06744 6.68656 6.14767 6.56027 6.35029L6.50284 6.44195L6.49699 10.6111L6.49607 11.5762C6.49283 14.7334 6.49265 14.9106 6.58106 14.995C6.58632 15 6.59188 15.0047 6.59778 15.0097L6.59779 15.0097L6.5978 15.0097C6.60678 15.0172 6.61652 15.0254 6.6271 15.0364C6.74195 15.155 6.80701 15.1817 6.97141 15.1817C7.09389 15.1817 7.13023 15.172 7.20494 15.1281C7.25475 15.0994 7.31777 15.0479 7.34267 15.0133C7.3496 15.0043 7.35609 14.997 7.36216 14.9901C7.36634 14.9853 7.37033 14.9808 7.37413 14.9761C7.45035 14.8822 7.45033 14.7264 7.44996 11.4434L7.4499 10.653C7.4499 6.85455 7.44787 6.51254 7.41738 6.42646ZM10.0786 6.17604C10.1782 6.23342 10.2547 6.32711 10.2928 6.4302C10.3139 6.48936 10.3177 7.23508 10.3195 10.6435C10.3195 10.9785 10.3196 11.2873 10.3196 11.5719C10.3202 14.7381 10.3203 14.9179 10.2308 14.9997C10.2254 15.0046 10.2196 15.0092 10.2136 15.014C10.2044 15.0214 10.1944 15.0294 10.1836 15.0402C10.0707 15.1529 10.0057 15.1798 9.84103 15.1798C9.71677 15.1819 9.68424 15.174 9.60572 15.1283C9.49849 15.0653 9.41641 14.9582 9.38389 14.8434C9.36661 14.7822 9.3628 13.746 9.36661 10.6131L9.37245 6.46295L9.42022 6.37129C9.47384 6.26618 9.57142 6.17832 9.68043 6.13795C9.79148 6.09581 9.97317 6.11307 10.0784 6.17629L10.0786 6.17604Z" fill="#CCCCCC"/>
</svg>
