<svg width="99" height="74" viewBox="0 0 99 74" fill="none" xmlns="http://www.w3.org/2000/svg">
<g clip-path="url(#clip0_447_3776)">
<path fill-rule="evenodd" clip-rule="evenodd" d="M51.4295 25.5054C51.2708 25.6638 51.0141 25.6638 50.8554 25.5054L49.2697 23.9198L49.2694 23.9191C49.2649 23.9146 49.2604 23.9102 49.256 23.9054C49.2539 23.903 49.2515 23.9002 49.2498 23.8982C49.2478 23.8954 49.2454 23.893 49.2433 23.8903C49.2406 23.8872 49.2382 23.8841 49.2358 23.8807C49.234 23.8786 49.2327 23.8769 49.231 23.8748C49.2286 23.8711 49.2258 23.8676 49.2234 23.8642C49.2224 23.8622 49.221 23.8605 49.2197 23.8587C49.2173 23.855 49.2149 23.8512 49.2125 23.8474C49.2111 23.8454 49.2101 23.8437 49.209 23.8416C49.207 23.8382 49.2049 23.8344 49.2025 23.8303C49.2015 23.8282 49.2001 23.8265 49.1991 23.8245C49.197 23.8207 49.1953 23.8173 49.1939 23.8135C49.1926 23.8114 49.1912 23.809 49.1902 23.8063C49.1885 23.8029 49.1871 23.7998 49.1857 23.7967C49.1843 23.7936 49.183 23.7909 49.1819 23.7878C49.1806 23.785 49.1799 23.7823 49.1785 23.7792C49.1775 23.7761 49.1758 23.7724 49.1747 23.7693C49.1737 23.7665 49.173 23.7641 49.172 23.7614C49.1706 23.7576 49.1696 23.7538 49.1682 23.7501L49.1662 23.7429C49.1655 23.7391 49.1641 23.735 49.1631 23.7309C49.1628 23.7285 49.1621 23.7268 49.1617 23.7244C49.1607 23.7199 49.1597 23.7158 49.1586 23.7117C49.1583 23.7093 49.158 23.7072 49.1576 23.7048C49.1566 23.7004 49.1559 23.6966 49.1552 23.6921C49.1549 23.6894 49.1545 23.6867 49.1542 23.6846C49.1538 23.6805 49.1532 23.6764 49.1528 23.6723C49.1525 23.6692 49.1525 23.6658 49.1521 23.6623C49.1518 23.6589 49.1514 23.6558 49.1514 23.6527C49.1514 23.6459 49.1511 23.6394 49.1511 23.6325V20.6565C49.1511 20.4324 49.3324 20.2507 49.5566 20.2504C49.7808 20.2504 49.9628 20.4317 49.9628 20.6562V20.6565V23.4649L51.4295 24.9313C51.5879 25.09 51.5879 25.3467 51.4295 25.5054ZM49.5624 19.439C47.0221 19.439 44.9628 21.4984 44.9628 24.0387C44.9628 26.579 47.0221 28.6387 49.5624 28.6387C52.1027 28.6387 54.1621 26.579 54.1621 24.0387C54.1621 21.4984 52.1027 19.439 49.5624 19.439ZM52.7468 14.1312C52.7464 13.5745 53.0083 13.0501 53.4543 12.7159V14.1312C53.4543 14.7177 53.9297 15.1931 54.5158 15.1931C55.1023 15.1931 55.5778 14.7177 55.5778 14.1312L55.5774 13.7774H55.5778V12.7303C56.0223 13.0583 56.2852 13.5783 56.2852 14.1312C56.2852 15.1084 55.4927 15.9006 54.5158 15.9006C53.5389 15.9006 52.7468 15.1084 52.7468 14.1312ZM42.8392 14.1312C42.8389 13.5745 43.1015 13.0501 43.5471 12.7159V14.1312C43.5471 14.7177 44.0225 15.1931 44.609 15.1931C45.1951 15.1931 45.6702 14.7177 45.6702 14.1312V13.7774H45.6706V12.7162C46.4521 13.3027 46.6101 14.4119 46.0236 15.1931C45.4375 15.9746 44.3283 16.133 43.5471 15.5465C43.1015 15.2126 42.8392 14.6882 42.8392 14.1312ZM59.1158 30.054H41.0702C40.484 30.054 40.0089 29.5786 40.0089 28.9924V18.0237H58.0542C58.6404 18.0237 59.1158 18.4991 59.1158 19.0852V30.054ZM58.408 11.6546H55.5777V10.579C55.5777 9.99287 55.1023 9.53149 54.5158 9.53149C53.9297 9.53149 53.4543 10.0069 53.4543 10.5931V11.6546H45.6706L45.6702 10.5931C45.6702 10.0069 45.1951 9.53149 44.609 9.53149C44.0225 9.53149 43.5471 10.0069 43.5471 10.5931V11.6546H38.5937V29.3462C38.5937 30.5188 39.5438 31.469 40.7165 31.469H60.5312V13.7774C60.5312 12.6051 59.5806 11.6546 58.408 11.6546Z" fill="black"/>
<path d="M9.50923 54H6.87287L10.8899 42.3636H14.0604L18.0717 54H15.4354L12.5206 45.0227H12.4297L9.50923 54ZM9.34446 49.4261H15.5717V51.3466H9.34446V49.4261ZM26.4695 45.2727L23.4183 54H20.6911L17.6399 45.2727H20.1967L22.0092 51.517H22.1001L23.907 45.2727H26.4695ZM29.9624 54.1648C29.4055 54.1648 28.9093 54.0682 28.4737 53.875C28.0381 53.678 27.6934 53.3883 27.4396 53.0057C27.1896 52.6193 27.0646 52.1383 27.0646 51.5625C27.0646 51.0777 27.1536 50.6705 27.3317 50.3409C27.5097 50.0114 27.7521 49.7462 28.0589 49.5455C28.3658 49.3447 28.7143 49.1932 29.1044 49.0909C29.4983 48.9886 29.9112 48.9167 30.343 48.875C30.8506 48.822 31.2597 48.7727 31.5703 48.7273C31.8809 48.678 32.1063 48.6061 32.2464 48.5114C32.3866 48.4167 32.4567 48.2765 32.4567 48.0909V48.0568C32.4567 47.697 32.343 47.4186 32.1158 47.2216C31.8923 47.0246 31.5741 46.9261 31.1612 46.9261C30.7256 46.9261 30.379 47.0227 30.1214 47.2159C29.8639 47.4053 29.6934 47.6439 29.6101 47.9318L27.3714 47.75C27.4851 47.2197 27.7086 46.7614 28.0419 46.375C28.3752 45.9848 28.8052 45.6856 29.3317 45.4773C29.862 45.2652 30.4756 45.1591 31.1726 45.1591C31.6574 45.1591 32.1214 45.2159 32.5646 45.3295C33.0116 45.4432 33.4074 45.6193 33.7521 45.858C34.1006 46.0966 34.3752 46.4034 34.576 46.7784C34.7768 47.1496 34.8771 47.5947 34.8771 48.1136V54H32.5817V52.7898H32.5135C32.3733 53.0625 32.1858 53.303 31.951 53.5114C31.7161 53.7159 31.4339 53.8769 31.1044 53.9943C30.7749 54.108 30.3942 54.1648 29.9624 54.1648ZM30.6555 52.4943C31.0116 52.4943 31.326 52.4242 31.5987 52.2841C31.8714 52.1402 32.0855 51.947 32.2408 51.7045C32.3961 51.4621 32.4737 51.1875 32.4737 50.8807V49.9545C32.398 50.0038 32.2938 50.0492 32.1612 50.0909C32.0324 50.1288 31.8866 50.1648 31.7237 50.1989C31.5608 50.2292 31.398 50.2576 31.2351 50.2841C31.0722 50.3068 30.9245 50.3277 30.7919 50.3466C30.5078 50.3883 30.2597 50.4545 30.0476 50.5455C29.8355 50.6364 29.6707 50.7595 29.5533 50.9148C29.4358 51.0663 29.3771 51.2557 29.3771 51.483C29.3771 51.8125 29.4964 52.0644 29.7351 52.2386C29.9775 52.4091 30.2843 52.4943 30.6555 52.4943ZM36.755 54V45.2727H39.1754V54H36.755ZM37.9709 44.1477C37.611 44.1477 37.3023 44.0284 37.0447 43.7898C36.791 43.5473 36.6641 43.2576 36.6641 42.9205C36.6641 42.5871 36.791 42.3011 37.0447 42.0625C37.3023 41.8201 37.611 41.6989 37.9709 41.6989C38.3307 41.6989 38.6375 41.8201 38.8913 42.0625C39.1489 42.3011 39.2777 42.5871 39.2777 42.9205C39.2777 43.2576 39.1489 43.5473 38.8913 43.7898C38.6375 44.0284 38.3307 44.1477 37.9709 44.1477ZM43.5348 42.3636V54H41.1143V42.3636H43.5348ZM47.9624 54.1648C47.4055 54.1648 46.9093 54.0682 46.4737 53.875C46.0381 53.678 45.6934 53.3883 45.4396 53.0057C45.1896 52.6193 45.0646 52.1383 45.0646 51.5625C45.0646 51.0777 45.1536 50.6705 45.3317 50.3409C45.5097 50.0114 45.7521 49.7462 46.0589 49.5455C46.3658 49.3447 46.7143 49.1932 47.1044 49.0909C47.4983 48.9886 47.9112 48.9167 48.343 48.875C48.8506 48.822 49.2597 48.7727 49.5703 48.7273C49.8809 48.678 50.1063 48.6061 50.2464 48.5114C50.3866 48.4167 50.4567 48.2765 50.4567 48.0909V48.0568C50.4567 47.697 50.343 47.4186 50.1158 47.2216C49.8923 47.0246 49.5741 46.9261 49.1612 46.9261C48.7256 46.9261 48.379 47.0227 48.1214 47.2159C47.8639 47.4053 47.6934 47.6439 47.6101 47.9318L45.3714 47.75C45.4851 47.2197 45.7086 46.7614 46.0419 46.375C46.3752 45.9848 46.8052 45.6856 47.3317 45.4773C47.862 45.2652 48.4756 45.1591 49.1726 45.1591C49.6574 45.1591 50.1214 45.2159 50.5646 45.3295C51.0116 45.4432 51.4074 45.6193 51.7521 45.858C52.1006 46.0966 52.3752 46.4034 52.576 46.7784C52.7768 47.1496 52.8771 47.5947 52.8771 48.1136V54H50.5817V52.7898H50.5135C50.3733 53.0625 50.1858 53.303 49.951 53.5114C49.7161 53.7159 49.4339 53.8769 49.1044 53.9943C48.7749 54.108 48.3942 54.1648 47.9624 54.1648ZM48.6555 52.4943C49.0116 52.4943 49.326 52.4242 49.5987 52.2841C49.8714 52.1402 50.0855 51.947 50.2408 51.7045C50.3961 51.4621 50.4737 51.1875 50.4737 50.8807V49.9545C50.398 50.0038 50.2938 50.0492 50.1612 50.0909C50.0324 50.1288 49.8866 50.1648 49.7237 50.1989C49.5608 50.2292 49.398 50.2576 49.2351 50.2841C49.0722 50.3068 48.9245 50.3277 48.7919 50.3466C48.5078 50.3883 48.2597 50.4545 48.0476 50.5455C47.8355 50.6364 47.6707 50.7595 47.5533 50.9148C47.4358 51.0663 47.3771 51.2557 47.3771 51.483C47.3771 51.8125 47.4964 52.0644 47.7351 52.2386C47.9775 52.4091 48.2843 52.4943 48.6555 52.4943ZM54.8004 54V42.3636H57.2209V46.7386H57.2947C57.4008 46.5038 57.5542 46.2652 57.755 46.0227C57.9595 45.7765 58.2247 45.572 58.5504 45.4091C58.88 45.2424 59.2891 45.1591 59.7777 45.1591C60.4141 45.1591 61.0012 45.3258 61.5391 45.6591C62.0769 45.9886 62.5069 46.4867 62.8288 47.1534C63.1508 47.8163 63.3118 48.6477 63.3118 49.6477C63.3118 50.6212 63.1546 51.4432 62.8402 52.1136C62.5296 52.7803 62.1054 53.286 61.5675 53.6307C61.0334 53.9716 60.4349 54.142 59.772 54.142C59.3023 54.142 58.9027 54.0644 58.5732 53.9091C58.2474 53.7538 57.9804 53.5587 57.772 53.3239C57.5637 53.0852 57.4046 52.8447 57.2947 52.6023H57.1868V54H54.8004ZM57.1697 49.6364C57.1697 50.1553 57.2417 50.608 57.3857 50.9943C57.5296 51.3807 57.7379 51.6818 58.0107 51.8977C58.2834 52.1098 58.6148 52.2159 59.005 52.2159C59.3989 52.2159 59.7322 52.108 60.005 51.892C60.2777 51.6723 60.4841 51.3693 60.6243 50.983C60.7682 50.5928 60.8402 50.1439 60.8402 49.6364C60.8402 49.1326 60.7701 48.6894 60.63 48.3068C60.4898 47.9242 60.2834 47.625 60.0107 47.4091C59.7379 47.1932 59.4027 47.0852 59.005 47.0852C58.611 47.0852 58.2777 47.1894 58.005 47.3977C57.736 47.6061 57.5296 47.9015 57.3857 48.2841C57.2417 48.6667 57.1697 49.1174 57.1697 49.6364ZM64.9268 54V45.2727H67.3473V54H64.9268ZM66.1428 44.1477C65.7829 44.1477 65.4742 44.0284 65.2166 43.7898C64.9628 43.5473 64.8359 43.2576 64.8359 42.9205C64.8359 42.5871 64.9628 42.3011 65.2166 42.0625C65.4742 41.8201 65.7829 41.6989 66.1428 41.6989C66.5026 41.6989 66.8094 41.8201 67.0632 42.0625C67.3208 42.3011 67.4496 42.5871 67.4496 42.9205C67.4496 43.2576 67.3208 43.5473 67.0632 43.7898C66.8094 44.0284 66.5026 44.1477 66.1428 44.1477ZM71.7067 42.3636V54H69.2862V42.3636H71.7067ZM73.6456 54V45.2727H76.0661V54H73.6456ZM74.8615 44.1477C74.5017 44.1477 74.1929 44.0284 73.9354 43.7898C73.6816 43.5473 73.5547 43.2576 73.5547 42.9205C73.5547 42.5871 73.6816 42.3011 73.9354 42.0625C74.1929 41.8201 74.5017 41.6989 74.8615 41.6989C75.2214 41.6989 75.5282 41.8201 75.782 42.0625C76.0395 42.3011 76.1683 42.5871 76.1683 42.9205C76.1683 43.2576 76.0395 43.5473 75.782 43.7898C75.5282 44.0284 75.2214 44.1477 74.8615 44.1477ZM82.647 45.2727V47.0909H77.3913V45.2727H82.647ZM78.5845 43.1818H81.005V51.3182C81.005 51.5417 81.0391 51.7159 81.1072 51.8409C81.1754 51.9621 81.2701 52.0473 81.3913 52.0966C81.5163 52.1458 81.6603 52.1705 81.8232 52.1705C81.9368 52.1705 82.0504 52.161 82.1641 52.142C82.2777 52.1193 82.3648 52.1023 82.4254 52.0909L82.8061 53.892C82.6849 53.9299 82.5144 53.9735 82.2947 54.0227C82.075 54.0758 81.808 54.108 81.4936 54.1193C80.9103 54.142 80.3989 54.0644 79.9595 53.8864C79.5239 53.7083 79.1849 53.4318 78.9425 53.0568C78.7 52.6818 78.5807 52.2083 78.5845 51.6364V43.1818ZM85.718 57.2727C85.4112 57.2727 85.1233 57.2481 84.8544 57.1989C84.5893 57.1534 84.3696 57.0947 84.1953 57.0227L84.7408 55.2159C85.0249 55.303 85.2805 55.3504 85.5078 55.358C85.7389 55.3655 85.9377 55.3125 86.1044 55.1989C86.2749 55.0852 86.4131 54.892 86.5192 54.6193L86.6612 54.25L83.5305 45.2727H86.076L87.8828 51.6818H87.9737L89.7976 45.2727H92.3601L88.968 54.9432C88.8052 55.4129 88.5836 55.822 88.3033 56.1705C88.0268 56.5227 87.6764 56.7936 87.2521 56.983C86.8279 57.1761 86.3165 57.2727 85.718 57.2727Z" fill="black"/>
</g>
<defs>
<clipPath id="clip0_447_3776">
<rect width="98.375" height="74" fill="white" transform="translate(0.375)"/>
</clipPath>
</defs>
</svg>
