<svg width="99" height="74" viewBox="0 0 99 74" fill="none" xmlns="http://www.w3.org/2000/svg">
<g clip-path="url(#clip0_474_3821)">
<path fill-rule="evenodd" clip-rule="evenodd" d="M55.5094 24.8285C54.7032 26.7323 53.305 27.5971 50.9776 27.5971C49.4899 27.5971 48.2683 27.1703 47.3462 26.2668C46.491 25.4294 45.9295 24.3829 45.6752 23.0739H44.9177C44.3627 23.0739 44.0186 22.6396 44.0186 22.0925C44.0186 21.5365 44.3545 21.1105 44.9177 21.1105H45.5192C45.5175 20.9469 45.5175 20.6666 45.5175 20.5613C45.5175 20.4067 45.523 20.2926 45.5309 20.1291H44.9177C44.3627 20.1291 44.0186 19.6945 44.0186 19.1474C44.0186 18.6 44.3627 18.1657 44.9177 18.1657H45.7318C46.0214 16.8566 46.6216 15.5565 47.4765 14.7332C48.3937 13.8491 49.6044 13.4028 50.9776 13.4028C53.2262 13.4028 54.6874 14.3119 55.4449 16.1817C55.5207 16.3411 55.5591 16.5159 55.5567 16.6928C55.5567 17.1237 55.2996 17.4781 54.8516 17.6656L54.8351 17.6718L54.8177 17.6755C54.6895 17.7139 54.5208 17.755 54.3573 17.755C53.9244 17.755 53.5761 17.5072 53.4017 17.0836C52.9187 15.9161 52.2846 15.4921 50.9776 15.4921C49.4659 15.4921 48.3862 16.3661 47.9043 18.1657H52.6928C53.2563 18.1657 53.5926 18.5852 53.5926 19.1302C53.5926 19.6883 53.2477 20.1291 52.6928 20.1291H47.6273C47.6191 20.2926 47.6136 20.3954 47.6136 20.5613C47.6136 20.6621 47.6136 20.9473 47.616 21.1105H51.827C52.3987 21.1105 52.7264 21.5283 52.7264 22.0925C52.7264 22.6313 52.3737 23.0742 51.827 23.0742H47.8398C48.2731 24.8738 49.3758 25.5192 50.9776 25.5192C52.3607 25.5192 52.9677 25.1048 53.3831 24.0631L53.3845 24.0593L53.3866 24.0552C53.585 23.5918 53.9419 23.3361 54.3906 23.3361C54.5184 23.3378 54.6456 23.359 54.7673 23.3988C55.254 23.5318 55.6064 23.9544 55.6064 24.3973C55.6084 24.5468 55.5748 24.6941 55.5094 24.8285ZM49.8125 9.53125C43.7547 9.53125 38.8438 14.4422 38.8438 20.5C38.8438 26.5578 43.7547 31.4688 49.8125 31.4688C55.8703 31.4688 60.7812 26.5578 60.7812 20.5C60.7812 14.4422 55.8703 9.53125 49.8125 9.53125Z" fill="black"/>
<path d="M26.777 54V42.3636H31.4361C32.2921 42.3636 33.0062 42.4905 33.5781 42.7443C34.1501 42.9981 34.58 43.3504 34.8679 43.8011C35.1558 44.2481 35.2997 44.7633 35.2997 45.3466C35.2997 45.8011 35.2088 46.2008 35.027 46.5455C34.8452 46.8864 34.5952 47.1667 34.277 47.3864C33.9626 47.6023 33.6027 47.7557 33.1974 47.8466V47.9602C33.6406 47.9792 34.0554 48.1042 34.4418 48.3352C34.8319 48.5663 35.1482 48.8902 35.3906 49.3068C35.633 49.7197 35.7543 50.2121 35.7543 50.7841C35.7543 51.4015 35.6009 51.9527 35.294 52.4375C34.991 52.9186 34.5421 53.2992 33.9474 53.5795C33.3527 53.8598 32.6198 54 31.7486 54H26.777ZM29.2372 51.9886H31.2429C31.9285 51.9886 32.4285 51.858 32.7429 51.5966C33.0573 51.3314 33.2145 50.9792 33.2145 50.5398C33.2145 50.2178 33.1368 49.9337 32.9815 49.6875C32.8262 49.4413 32.6046 49.2481 32.3168 49.108C32.0327 48.9678 31.6937 48.8977 31.2997 48.8977H29.2372V51.9886ZM29.2372 47.233H31.0611C31.3982 47.233 31.6974 47.1742 31.9588 47.0568C32.224 46.9356 32.4323 46.7652 32.5838 46.5455C32.7391 46.3258 32.8168 46.0625 32.8168 45.7557C32.8168 45.3352 32.6671 44.9962 32.3679 44.7386C32.0724 44.4811 31.652 44.3523 31.1065 44.3523H29.2372V47.233ZM37.3097 54V45.2727H39.7301V54H37.3097ZM38.5256 44.1477C38.1657 44.1477 37.857 44.0284 37.5994 43.7898C37.3456 43.5473 37.2188 43.2576 37.2188 42.9205C37.2188 42.5871 37.3456 42.3011 37.5994 42.0625C37.857 41.8201 38.1657 41.6989 38.5256 41.6989C38.8854 41.6989 39.1922 41.8201 39.446 42.0625C39.7036 42.3011 39.8324 42.5871 39.8324 42.9205C39.8324 43.2576 39.7036 43.5473 39.446 43.7898C39.1922 44.0284 38.8854 44.1477 38.5256 44.1477ZM44.0895 42.3636V54H41.669V42.3636H44.0895ZM48.4489 42.3636V54H46.0284V42.3636H48.4489ZM50.3878 54V45.2727H52.8082V54H50.3878ZM51.6037 44.1477C51.2438 44.1477 50.9351 44.0284 50.6776 43.7898C50.4238 43.5473 50.2969 43.2576 50.2969 42.9205C50.2969 42.5871 50.4238 42.3011 50.6776 42.0625C50.9351 41.8201 51.2438 41.6989 51.6037 41.6989C51.9635 41.6989 52.2704 41.8201 52.5241 42.0625C52.7817 42.3011 52.9105 42.5871 52.9105 42.9205C52.9105 43.2576 52.7817 43.5473 52.5241 43.7898C52.2704 44.0284 51.9635 44.1477 51.6037 44.1477ZM57.1676 48.9545V54H54.7472V45.2727H57.054V46.8125H57.1562C57.3494 46.3049 57.6733 45.9034 58.1278 45.608C58.5824 45.3087 59.1335 45.1591 59.7812 45.1591C60.3873 45.1591 60.9157 45.2917 61.3665 45.5568C61.8172 45.822 62.1676 46.2008 62.4176 46.6932C62.6676 47.1818 62.7926 47.7652 62.7926 48.4432V54H60.3722V48.875C60.3759 48.3409 60.2396 47.9242 59.9631 47.625C59.6866 47.322 59.3059 47.1705 58.821 47.1705C58.4953 47.1705 58.2074 47.2405 57.9574 47.3807C57.7112 47.5208 57.518 47.7254 57.3778 47.9943C57.2415 48.2595 57.1714 48.5795 57.1676 48.9545ZM68.6321 57.4545C67.848 57.4545 67.1757 57.3466 66.6151 57.1307C66.0582 56.9186 65.6151 56.6288 65.2855 56.2614C64.956 55.8939 64.742 55.4811 64.6435 55.0227L66.8821 54.7216C66.9503 54.8958 67.0582 55.0587 67.206 55.2102C67.3537 55.3617 67.5488 55.483 67.7912 55.5739C68.0374 55.6686 68.3366 55.7159 68.6889 55.7159C69.2154 55.7159 69.6491 55.5871 69.9901 55.3295C70.3348 55.0758 70.5071 54.6496 70.5071 54.0511V52.4545H70.4048C70.2988 52.697 70.1397 52.9261 69.9276 53.142C69.7154 53.358 69.4427 53.5341 69.1094 53.6705C68.776 53.8068 68.3783 53.875 67.9162 53.875C67.2609 53.875 66.6643 53.7235 66.1264 53.4205C65.5923 53.1136 65.1662 52.6458 64.848 52.017C64.5336 51.3845 64.3764 50.5852 64.3764 49.6193C64.3764 48.6307 64.5374 47.8049 64.8594 47.142C65.1813 46.4792 65.6094 45.983 66.1435 45.6534C66.6813 45.3239 67.2704 45.1591 67.9105 45.1591C68.3991 45.1591 68.8082 45.2424 69.1378 45.4091C69.4673 45.572 69.7325 45.7765 69.9332 46.0227C70.1378 46.2652 70.295 46.5038 70.4048 46.7386H70.4957V45.2727H72.8991V54.0852C72.8991 54.8277 72.7173 55.4489 72.3537 55.9489C71.9901 56.4489 71.4863 56.8239 70.8423 57.0739C70.2022 57.3277 69.4654 57.4545 68.6321 57.4545ZM68.6832 52.0568C69.0734 52.0568 69.4029 51.9602 69.6719 51.767C69.9446 51.5701 70.1529 51.2898 70.2969 50.9261C70.4446 50.5587 70.5185 50.1193 70.5185 49.608C70.5185 49.0966 70.4465 48.6534 70.3026 48.2784C70.1586 47.8996 69.9503 47.6061 69.6776 47.3977C69.4048 47.1894 69.0734 47.0852 68.6832 47.0852C68.2855 47.0852 67.9503 47.1932 67.6776 47.4091C67.4048 47.6212 67.1984 47.9167 67.0582 48.2955C66.9181 48.6742 66.848 49.1117 66.848 49.608C66.848 50.1117 66.9181 50.5473 67.0582 50.9148C67.2022 51.2784 67.4086 51.5606 67.6776 51.7614C67.9503 51.9583 68.2855 52.0568 68.6832 52.0568Z" fill="black"/>
</g>
<defs>
<clipPath id="clip0_474_3821">
<rect width="98.375" height="74" fill="white" transform="translate(0.625)"/>
</clipPath>
</defs>
</svg>
