<svg width="99" height="74" viewBox="0 0 99 74" fill="none" xmlns="http://www.w3.org/2000/svg">
<g clip-path="url(#clip0_447_3815)">
<path fill-rule="evenodd" clip-rule="evenodd" d="M42.0125 9.69995H56.8625C57.2205 9.69995 57.5639 9.84218 57.8171 10.0954C58.0703 10.3485 58.2125 10.6919 58.2125 11.05V13.75C58.2125 14.108 58.0703 14.4514 57.8171 14.7045C57.5639 14.9577 57.2205 15.1 56.8625 15.1H42.0125C41.6545 15.1 41.3111 14.9577 41.0579 14.7045C40.8047 14.4514 40.6625 14.108 40.6625 13.75V11.05C40.6625 10.6919 40.8047 10.3485 41.0579 10.0954C41.3111 9.84218 41.6545 9.69995 42.0125 9.69995ZM42.0125 25.9H56.8625C57.2205 25.9 57.5639 26.0422 57.8171 26.2954C58.0703 26.5485 58.2125 26.8919 58.2125 27.25V29.95C58.2125 30.308 58.0703 30.6514 57.8171 30.9045C57.5639 31.1577 57.2205 31.2999 56.8625 31.2999H42.0125C41.6545 31.2999 41.3111 31.1577 41.0579 30.9045C40.8047 30.6514 40.6625 30.308 40.6625 29.95V27.25C40.6625 26.8919 40.8047 26.5485 41.0579 26.2954C41.3111 26.0422 41.6545 25.9 42.0125 25.9ZM42.0125 17.8H56.8625C57.2205 17.8 57.5639 17.9422 57.8171 18.1954C58.0703 18.4485 58.2125 18.7919 58.2125 19.15V21.85C58.2125 22.208 58.0703 22.5514 57.8171 22.8045C57.5639 23.0577 57.2205 23.2 56.8625 23.2H42.0125C41.6545 23.2 41.3111 23.0577 41.0579 22.8045C40.8047 22.5514 40.6625 22.208 40.6625 21.85V19.15C40.6625 18.7919 40.8047 18.4485 41.0579 18.1954C41.3111 17.9422 41.6545 17.8 42.0125 17.8ZM42.0125 15.775H56.8625V17.125H42.0125V15.775ZM42.0125 23.875H56.8625V25.225H42.0125V23.875ZM42.6875 11.725C42.821 11.725 42.9515 11.7645 43.0625 11.8387C43.1735 11.9129 43.26 12.0183 43.3111 12.1416C43.3622 12.265 43.3756 12.4007 43.3495 12.5316C43.3235 12.6626 43.2592 12.7828 43.1648 12.8772C43.0704 12.9716 42.9501 13.0359 42.8192 13.062C42.6883 13.088 42.5525 13.0747 42.4292 13.0236C42.3059 12.9725 42.2004 12.886 42.1263 12.775C42.0521 12.664 42.0125 12.5335 42.0125 12.4C42.0125 12.2209 42.0836 12.0492 42.2102 11.9227C42.3368 11.7961 42.5085 11.725 42.6875 11.725ZM42.6875 19.825C42.821 19.825 42.9515 19.8645 43.0625 19.9387C43.1735 20.0129 43.26 20.1183 43.3111 20.2416C43.3622 20.365 43.3756 20.5007 43.3495 20.6316C43.3235 20.7626 43.2592 20.8828 43.1648 20.9772C43.0704 21.0716 42.9501 21.1359 42.8192 21.162C42.6883 21.188 42.5525 21.1747 42.4292 21.1236C42.3059 21.0725 42.2004 20.986 42.1263 20.875C42.0521 20.764 42.0125 20.6335 42.0125 20.5C42.0125 20.3209 42.0836 20.1492 42.2102 20.0227C42.3368 19.8961 42.5085 19.825 42.6875 19.825ZM42.6875 27.9249C42.821 27.9249 42.9515 27.9645 43.0625 28.0387C43.1735 28.1129 43.26 28.2183 43.3111 28.3416C43.3622 28.465 43.3756 28.6007 43.3495 28.7316C43.3235 28.8626 43.2592 28.9828 43.1648 29.0772C43.0704 29.1716 42.9501 29.2359 42.8192 29.262C42.6883 29.288 42.5525 29.2747 42.4292 29.2236C42.3059 29.1725 42.2004 29.086 42.1263 28.975C42.0521 28.864 42.0125 28.7335 42.0125 28.6C42.0125 28.4209 42.0836 28.2492 42.2102 28.1227C42.3368 27.9961 42.5085 27.9249 42.6875 27.9249Z" fill="black"/>
<path d="M36.3629 54H32.2379V42.3636H36.397C37.5675 42.3636 38.575 42.5966 39.4197 43.0625C40.2644 43.5246 40.9141 44.1894 41.3686 45.0568C41.8269 45.9242 42.0561 46.9621 42.0561 48.1705C42.0561 49.3826 41.8269 50.4242 41.3686 51.2955C40.9141 52.1667 40.2607 52.8352 39.4084 53.3011C38.5599 53.767 37.5447 54 36.3629 54ZM34.6982 51.892H36.2607C36.9879 51.892 37.5997 51.7633 38.0959 51.5057C38.5959 51.2443 38.9709 50.8409 39.2209 50.2955C39.4747 49.7462 39.6016 49.0379 39.6016 48.1705C39.6016 47.3106 39.4747 46.608 39.2209 46.0625C38.9709 45.517 38.5978 45.1155 38.1016 44.858C37.6054 44.6004 36.9936 44.4716 36.2663 44.4716H34.6982V51.892ZM46.3217 54.1648C45.7649 54.1648 45.2687 54.0682 44.8331 53.875C44.3975 53.678 44.0528 53.3883 43.799 53.0057C43.549 52.6193 43.424 52.1383 43.424 51.5625C43.424 51.0777 43.513 50.6705 43.6911 50.3409C43.8691 50.0114 44.1115 49.7462 44.4183 49.5455C44.7251 49.3447 45.0736 49.1932 45.4638 49.0909C45.8577 48.9886 46.2706 48.9167 46.7024 48.875C47.21 48.822 47.6191 48.7727 47.9297 48.7273C48.2403 48.678 48.4657 48.6061 48.6058 48.5114C48.746 48.4167 48.8161 48.2765 48.8161 48.0909V48.0568C48.8161 47.697 48.7024 47.4186 48.4751 47.2216C48.2517 47.0246 47.9335 46.9261 47.5206 46.9261C47.085 46.9261 46.7384 47.0227 46.4808 47.2159C46.2232 47.4053 46.0528 47.6439 45.9695 47.9318L43.7308 47.75C43.8445 47.2197 44.0679 46.7614 44.4013 46.375C44.7346 45.9848 45.1645 45.6856 45.6911 45.4773C46.2214 45.2652 46.835 45.1591 47.532 45.1591C48.0168 45.1591 48.4808 45.2159 48.924 45.3295C49.371 45.4432 49.7668 45.6193 50.1115 45.858C50.46 46.0966 50.7346 46.4034 50.9354 46.7784C51.1361 47.1496 51.2365 47.5947 51.2365 48.1136V54H48.9411V52.7898H48.8729C48.7327 53.0625 48.5452 53.303 48.3104 53.5114C48.0755 53.7159 47.7933 53.8769 47.4638 53.9943C47.1342 54.108 46.7536 54.1648 46.3217 54.1648ZM47.0149 52.4943C47.371 52.4943 47.6854 52.4242 47.9581 52.2841C48.2308 52.1402 48.4448 51.947 48.6001 51.7045C48.7554 51.4621 48.8331 51.1875 48.8331 50.8807V49.9545C48.7573 50.0038 48.6532 50.0492 48.5206 50.0909C48.3918 50.1288 48.246 50.1648 48.0831 50.1989C47.9202 50.2292 47.7573 50.2576 47.5945 50.2841C47.4316 50.3068 47.2839 50.3277 47.1513 50.3466C46.8672 50.3883 46.6191 50.4545 46.407 50.5455C46.1948 50.6364 46.0301 50.7595 45.9126 50.9148C45.7952 51.0663 45.7365 51.2557 45.7365 51.483C45.7365 51.8125 45.8558 52.0644 46.0945 52.2386C46.3369 52.4091 46.6437 52.4943 47.0149 52.4943ZM57.7564 45.2727V47.0909H52.5007V45.2727H57.7564ZM53.6939 43.1818H56.1143V51.3182C56.1143 51.5417 56.1484 51.7159 56.2166 51.8409C56.2848 51.9621 56.3795 52.0473 56.5007 52.0966C56.6257 52.1458 56.7696 52.1705 56.9325 52.1705C57.0462 52.1705 57.1598 52.161 57.2734 52.142C57.3871 52.1193 57.4742 52.1023 57.5348 52.0909L57.9155 53.892C57.7943 53.9299 57.6238 53.9735 57.4041 54.0227C57.1844 54.0758 56.9174 54.108 56.603 54.1193C56.0196 54.142 55.5083 54.0644 55.0689 53.8864C54.6333 53.7083 54.2943 53.4318 54.0518 53.0568C53.8094 52.6818 53.6901 52.2083 53.6939 51.6364V43.1818ZM61.8217 54.1648C61.2649 54.1648 60.7687 54.0682 60.3331 53.875C59.8975 53.678 59.5528 53.3883 59.299 53.0057C59.049 52.6193 58.924 52.1383 58.924 51.5625C58.924 51.0777 59.013 50.6705 59.1911 50.3409C59.3691 50.0114 59.6115 49.7462 59.9183 49.5455C60.2251 49.3447 60.5736 49.1932 60.9638 49.0909C61.3577 48.9886 61.7706 48.9167 62.2024 48.875C62.71 48.822 63.1191 48.7727 63.4297 48.7273C63.7403 48.678 63.9657 48.6061 64.1058 48.5114C64.246 48.4167 64.3161 48.2765 64.3161 48.0909V48.0568C64.3161 47.697 64.2024 47.4186 63.9751 47.2216C63.7517 47.0246 63.4335 46.9261 63.0206 46.9261C62.585 46.9261 62.2384 47.0227 61.9808 47.2159C61.7232 47.4053 61.5528 47.6439 61.4695 47.9318L59.2308 47.75C59.3445 47.2197 59.5679 46.7614 59.9013 46.375C60.2346 45.9848 60.6645 45.6856 61.1911 45.4773C61.7214 45.2652 62.335 45.1591 63.032 45.1591C63.5168 45.1591 63.9808 45.2159 64.424 45.3295C64.871 45.4432 65.2668 45.6193 65.6115 45.858C65.96 46.0966 66.2346 46.4034 66.4354 46.7784C66.6361 47.1496 66.7365 47.5947 66.7365 48.1136V54H64.4411V52.7898H64.3729C64.2327 53.0625 64.0452 53.303 63.8104 53.5114C63.5755 53.7159 63.2933 53.8769 62.9638 53.9943C62.6342 54.108 62.2536 54.1648 61.8217 54.1648ZM62.5149 52.4943C62.871 52.4943 63.1854 52.4242 63.4581 52.2841C63.7308 52.1402 63.9448 51.947 64.1001 51.7045C64.2554 51.4621 64.3331 51.1875 64.3331 50.8807V49.9545C64.2573 50.0038 64.1532 50.0492 64.0206 50.0909C63.8918 50.1288 63.746 50.1648 63.5831 50.1989C63.4202 50.2292 63.2573 50.2576 63.0945 50.2841C62.9316 50.3068 62.7839 50.3277 62.6513 50.3466C62.3672 50.3883 62.1191 50.4545 61.907 50.5455C61.6948 50.6364 61.5301 50.7595 61.4126 50.9148C61.2952 51.0663 61.2365 51.2557 61.2365 51.483C61.2365 51.8125 61.3558 52.0644 61.5945 52.2386C61.8369 52.4091 62.1437 52.4943 62.5149 52.4943Z" fill="black"/>
</g>
<defs>
<clipPath id="clip0_447_3815">
<rect width="98.375" height="74" fill="white" transform="translate(0.25)"/>
</clipPath>
</defs>
</svg>
