<svg width="99" height="74" viewBox="0 0 99 74" fill="none" xmlns="http://www.w3.org/2000/svg">
<g clip-path="url(#clip0_447_3794)">
<path fill-rule="evenodd" clip-rule="evenodd" d="M49.9875 16.1261V14.7761H55.3875V16.1261H49.9875ZM49.9875 18.1511V16.8011H56.7375V18.1511H49.9875ZM49.9875 20.1761V18.8261H55.3875V20.1761H49.9875ZM54.7125 28.9511H51.3375V26.9261H47.2875V28.9511H43.9125C43.7335 28.9511 43.5618 29.0222 43.4352 29.1488C43.3086 29.2754 43.2375 29.4471 43.2375 29.6261V30.3011H55.3875V29.6261C55.3875 29.4471 55.3164 29.2754 55.1898 29.1488C55.0632 29.0222 54.8915 28.9511 54.7125 28.9511ZM58.7625 10.7261H39.8625C39.5045 10.7261 39.1611 10.8683 38.9079 11.1215C38.6547 11.3747 38.5125 11.718 38.5125 12.0761V24.9011C38.5125 25.2591 38.6547 25.6025 38.9079 25.8557C39.1611 26.1088 39.5045 26.2511 39.8625 26.2511H58.7625C59.1205 26.2511 59.4639 26.1088 59.7171 25.8557C59.9703 25.6025 60.1125 25.2591 60.1125 24.9011V12.0761C60.1125 11.718 59.9703 11.3747 59.7171 11.1215C59.4639 10.8683 59.1205 10.7261 58.7625 10.7261ZM39.8625 12.1031V23.5511H58.7625V12.1031H39.8625ZM49.2855 24.1991C49.152 24.1991 49.0215 24.2387 48.9105 24.3128C48.7995 24.387 48.713 24.4924 48.6619 24.6158C48.6108 24.7391 48.5974 24.8748 48.6235 25.0058C48.6495 25.1367 48.7138 25.257 48.8082 25.3514C48.9026 25.4458 49.0229 25.5101 49.1538 25.5361C49.2847 25.5622 49.4205 25.5488 49.5438 25.4977C49.6671 25.4466 49.7726 25.3601 49.8467 25.2491C49.9209 25.1381 49.9605 25.0076 49.9605 24.8741C49.9605 24.6951 49.8894 24.5234 49.7628 24.3968C49.6362 24.2702 49.4645 24.1991 49.2855 24.1991ZM45.2625 14.1011C44.595 14.1011 43.9425 14.299 43.3874 14.6699C42.8324 15.0407 42.3998 15.5678 42.1444 16.1845C41.889 16.8012 41.8221 17.4798 41.9523 18.1345C42.0826 18.7892 42.404 19.3906 42.876 19.8626C43.348 20.3346 43.9494 20.656 44.6041 20.7862C45.2588 20.9165 45.9374 20.8496 46.5541 20.5942C47.1708 20.3387 47.6979 19.9061 48.0687 19.3511C48.4396 18.7961 48.6375 18.1436 48.6375 17.4761C48.6375 16.581 48.2819 15.7225 47.649 15.0896C47.016 14.4567 46.1576 14.1011 45.2625 14.1011ZM47.6002 16.1264L45.2625 17.4761V14.7761C45.7364 14.7764 46.2018 14.9013 46.6121 15.1383C47.0224 15.3753 47.3632 15.7161 47.6002 16.1264Z" fill="black"/>
<path d="M19.6989 42.3636H22.733L25.9375 50.1818H26.0739L29.2784 42.3636H32.3125V54H29.9261V46.4261H29.8295L26.8182 53.9432H25.1932L22.1818 46.3977H22.0852V54H19.6989V42.3636ZM38.2372 54.1705C37.3546 54.1705 36.5914 53.983 35.9474 53.608C35.3073 53.2292 34.813 52.7027 34.4645 52.0284C34.116 51.3504 33.9418 50.5644 33.9418 49.6705C33.9418 48.7689 34.116 47.9811 34.4645 47.3068C34.813 46.6288 35.3073 46.1023 35.9474 45.7273C36.5914 45.3485 37.3546 45.1591 38.2372 45.1591C39.1198 45.1591 39.8812 45.3485 40.5213 45.7273C41.1652 46.1023 41.6615 46.6288 42.0099 47.3068C42.3584 47.9811 42.5327 48.7689 42.5327 49.6705C42.5327 50.5644 42.3584 51.3504 42.0099 52.0284C41.6615 52.7027 41.1652 53.2292 40.5213 53.608C39.8812 53.983 39.1198 54.1705 38.2372 54.1705ZM38.2486 52.2955C38.6501 52.2955 38.9853 52.1818 39.2543 51.9545C39.5232 51.7235 39.7259 51.4091 39.8622 51.0114C40.0024 50.6136 40.0724 50.161 40.0724 49.6534C40.0724 49.1458 40.0024 48.6932 39.8622 48.2955C39.7259 47.8977 39.5232 47.5833 39.2543 47.3523C38.9853 47.1212 38.6501 47.0057 38.2486 47.0057C37.8433 47.0057 37.5024 47.1212 37.2259 47.3523C36.9531 47.5833 36.7467 47.8977 36.6065 48.2955C36.4702 48.6932 36.402 49.1458 36.402 49.6534C36.402 50.161 36.4702 50.6136 36.6065 51.0114C36.7467 51.4091 36.9531 51.7235 37.2259 51.9545C37.5024 52.1818 37.8433 52.2955 38.2486 52.2955ZM46.527 48.9545V54H44.1065V45.2727H46.4134V46.8125H46.5156C46.7088 46.3049 47.0327 45.9034 47.4872 45.608C47.9418 45.3087 48.4929 45.1591 49.1406 45.1591C49.7467 45.1591 50.2751 45.2917 50.7259 45.5568C51.1766 45.822 51.527 46.2008 51.777 46.6932C52.027 47.1818 52.152 47.7652 52.152 48.4432V54H49.7315V48.875C49.7353 48.3409 49.599 47.9242 49.3224 47.625C49.0459 47.322 48.6652 47.1705 48.1804 47.1705C47.8546 47.1705 47.5668 47.2405 47.3168 47.3807C47.0705 47.5208 46.8774 47.7254 46.7372 47.9943C46.6009 48.2595 46.5308 48.5795 46.527 48.9545ZM54.0597 54V45.2727H56.4801V54H54.0597ZM55.2756 44.1477C54.9157 44.1477 54.607 44.0284 54.3494 43.7898C54.0956 43.5473 53.9688 43.2576 53.9688 42.9205C53.9688 42.5871 54.0956 42.3011 54.3494 42.0625C54.607 41.8201 54.9157 41.6989 55.2756 41.6989C55.6354 41.6989 55.9422 41.8201 56.196 42.0625C56.4536 42.3011 56.5824 42.5871 56.5824 42.9205C56.5824 43.2576 56.4536 43.5473 56.196 43.7898C55.9422 44.0284 55.6354 44.1477 55.2756 44.1477ZM63.0611 45.2727V47.0909H57.8054V45.2727H63.0611ZM58.9986 43.1818H61.419V51.3182C61.419 51.5417 61.4531 51.7159 61.5213 51.8409C61.5895 51.9621 61.6842 52.0473 61.8054 52.0966C61.9304 52.1458 62.0743 52.1705 62.2372 52.1705C62.3509 52.1705 62.4645 52.161 62.5781 52.142C62.6918 52.1193 62.7789 52.1023 62.8395 52.0909L63.2202 53.892C63.099 53.9299 62.9285 53.9735 62.7088 54.0227C62.4891 54.0758 62.2221 54.108 61.9077 54.1193C61.3243 54.142 60.813 54.0644 60.3736 53.8864C59.938 53.7083 59.599 53.4318 59.3565 53.0568C59.1141 52.6818 58.9948 52.2083 58.9986 51.6364V43.1818ZM68.4872 54.1705C67.6046 54.1705 66.8414 53.983 66.1974 53.608C65.5573 53.2292 65.063 52.7027 64.7145 52.0284C64.366 51.3504 64.1918 50.5644 64.1918 49.6705C64.1918 48.7689 64.366 47.9811 64.7145 47.3068C65.063 46.6288 65.5573 46.1023 66.1974 45.7273C66.8414 45.3485 67.6046 45.1591 68.4872 45.1591C69.3698 45.1591 70.1312 45.3485 70.7713 45.7273C71.4152 46.1023 71.9115 46.6288 72.2599 47.3068C72.6084 47.9811 72.7827 48.7689 72.7827 49.6705C72.7827 50.5644 72.6084 51.3504 72.2599 52.0284C71.9115 52.7027 71.4152 53.2292 70.7713 53.608C70.1312 53.983 69.3698 54.1705 68.4872 54.1705ZM68.4986 52.2955C68.9001 52.2955 69.2353 52.1818 69.5043 51.9545C69.7732 51.7235 69.9759 51.4091 70.1122 51.0114C70.2524 50.6136 70.3224 50.161 70.3224 49.6534C70.3224 49.1458 70.2524 48.6932 70.1122 48.2955C69.9759 47.8977 69.7732 47.5833 69.5043 47.3523C69.2353 47.1212 68.9001 47.0057 68.4986 47.0057C68.0933 47.0057 67.7524 47.1212 67.4759 47.3523C67.2031 47.5833 66.9967 47.8977 66.8565 48.2955C66.7202 48.6932 66.652 49.1458 66.652 49.6534C66.652 50.161 66.7202 50.6136 66.8565 51.0114C66.9967 51.4091 67.2031 51.7235 67.4759 51.9545C67.7524 52.1818 68.0933 52.2955 68.4986 52.2955ZM74.3565 54V45.2727H76.7031V46.7955H76.794C76.9531 46.2538 77.2202 45.8447 77.5952 45.5682C77.9702 45.2879 78.402 45.1477 78.8906 45.1477C79.0118 45.1477 79.1425 45.1553 79.2827 45.1705C79.4228 45.1856 79.5459 45.2064 79.652 45.233V47.3807C79.5384 47.3466 79.3812 47.3163 79.1804 47.2898C78.9796 47.2633 78.7959 47.25 78.6293 47.25C78.2732 47.25 77.955 47.3277 77.6747 47.483C77.3982 47.6345 77.1785 47.8466 77.0156 48.1193C76.8565 48.392 76.777 48.7064 76.777 49.0625V54H74.3565Z" fill="black"/>
</g>
<defs>
<clipPath id="clip0_447_3794">
<rect width="98.375" height="74" fill="white" transform="translate(0.125)"/>
</clipPath>
</defs>
</svg>
