<svg width="100" height="74" viewBox="0 0 100 74" fill="none" xmlns="http://www.w3.org/2000/svg">
<g clip-path="url(#clip0_447_3788)">
<path fill-rule="evenodd" clip-rule="evenodd" d="M60.0625 27.9249H59.9577C59.4484 27.9249 58.96 27.7226 58.5999 27.3625C58.2398 27.0024 58.0375 26.514 58.0375 26.0047V25.8999H41.8375V26.0047C41.8375 26.2569 41.7878 26.5066 41.6913 26.7395C41.5948 26.9725 41.4534 27.1842 41.2751 27.3625C41.0968 27.5408 40.8851 27.6822 40.6521 27.7787C40.4192 27.8752 40.1695 27.9249 39.9173 27.9249H39.8125C39.6335 27.9249 39.4618 27.996 39.3352 28.1226C39.2086 28.2492 39.1375 28.4209 39.1375 28.5999V29.2749H60.7375V28.5999C60.7375 28.4209 60.6664 28.2492 60.5398 28.1226C60.4132 27.996 60.2415 27.9249 60.0625 27.9249ZM51.2875 15.7749H50.6125V14.4249H52.6375V13.7499C52.6375 13.3919 52.4953 13.0485 52.2421 12.7953C51.9889 12.5421 51.6455 12.3999 51.2875 12.3999H48.5875C48.2295 12.3999 47.8861 12.5421 47.6329 12.7953C47.3797 13.0485 47.2375 13.3919 47.2375 13.7499V14.4249H49.2625V15.7749H48.5875C43.3684 15.7749 39.1375 20.0058 39.1375 25.2249H60.7375C60.7375 20.0058 56.5066 15.7749 51.2875 15.7749Z" fill="black"/>
<path d="M27.4879 45.7102C27.4425 45.2519 27.2474 44.8958 26.9027 44.642C26.558 44.3883 26.0902 44.2614 25.4993 44.2614C25.0978 44.2614 24.7588 44.3182 24.4822 44.4318C24.2057 44.5417 23.9936 44.6951 23.8459 44.892C23.7019 45.089 23.63 45.3125 23.63 45.5625C23.6224 45.7708 23.666 45.9527 23.7607 46.108C23.8591 46.2633 23.9936 46.3977 24.1641 46.5114C24.3345 46.6212 24.5315 46.7178 24.755 46.8011C24.9785 46.8807 25.2171 46.9489 25.4709 47.0057L26.5163 47.2557C27.0239 47.3693 27.4898 47.5208 27.9141 47.7102C28.3383 47.8996 28.7057 48.1326 29.0163 48.4091C29.3269 48.6856 29.5675 49.0114 29.7379 49.3864C29.9122 49.7614 30.0012 50.1913 30.005 50.6761C30.0012 51.3883 29.8194 52.0057 29.4595 52.5284C29.1035 53.0473 28.5883 53.4508 27.9141 53.7386C27.2436 54.0227 26.4349 54.1648 25.4879 54.1648C24.5485 54.1648 23.7304 54.0208 23.0334 53.733C22.3402 53.4451 21.7985 53.0189 21.4084 52.4545C21.022 51.8864 20.8194 51.1837 20.8004 50.3466H23.1811C23.2076 50.7367 23.3194 51.0625 23.5163 51.3239C23.7171 51.5814 23.9841 51.7765 24.3175 51.9091C24.6546 52.0379 25.0353 52.1023 25.4595 52.1023C25.8762 52.1023 26.2379 52.0417 26.5447 51.9205C26.8554 51.7992 27.0959 51.6307 27.2663 51.4148C27.4368 51.1989 27.522 50.9508 27.522 50.6705C27.522 50.4091 27.4444 50.1894 27.2891 50.0114C27.1375 49.8333 26.9141 49.6818 26.6186 49.5568C26.3269 49.4318 25.969 49.3182 25.5447 49.2159L24.2777 48.8977C23.2966 48.6591 22.522 48.286 21.9538 47.7784C21.3857 47.2708 21.1035 46.5871 21.1072 45.7273C21.1035 45.0227 21.291 44.4072 21.6697 43.8807C22.0523 43.3542 22.5769 42.9432 23.2436 42.6477C23.9103 42.3523 24.6679 42.2045 25.5163 42.2045C26.38 42.2045 27.1338 42.3523 27.7777 42.6477C28.4254 42.9432 28.9292 43.3542 29.2891 43.8807C29.6489 44.4072 29.8345 45.017 29.8459 45.7102H27.4879ZM35.5916 54.1705C34.6939 54.1705 33.9212 53.9886 33.2734 53.625C32.6295 53.2576 32.1333 52.7386 31.7848 52.0682C31.4363 51.3939 31.2621 50.5966 31.2621 49.6761C31.2621 48.7784 31.4363 47.9905 31.7848 47.3125C32.1333 46.6345 32.6238 46.1061 33.2564 45.7273C33.8928 45.3485 34.639 45.1591 35.495 45.1591C36.0708 45.1591 36.6068 45.2519 37.103 45.4375C37.603 45.6193 38.0386 45.8939 38.4098 46.2614C38.7848 46.6288 39.0765 47.0909 39.2848 47.6477C39.4931 48.2008 39.5973 48.8485 39.5973 49.5909V50.2557H32.228V48.7557H37.3189C37.3189 48.4072 37.2431 48.0985 37.0916 47.8295C36.9401 47.5606 36.7299 47.3504 36.4609 47.1989C36.1958 47.0436 35.8871 46.9659 35.5348 46.9659C35.1674 46.9659 34.8416 47.0511 34.5575 47.2216C34.2772 47.3883 34.0575 47.6136 33.8984 47.8977C33.7393 48.178 33.6579 48.4905 33.6541 48.8352V50.2614C33.6541 50.6932 33.7337 51.0663 33.8928 51.3807C34.0556 51.6951 34.2848 51.9375 34.5803 52.108C34.8757 52.2784 35.2261 52.3636 35.6314 52.3636C35.9003 52.3636 36.1465 52.3258 36.37 52.25C36.5935 52.1742 36.7848 52.0606 36.9439 51.9091C37.103 51.7576 37.2242 51.572 37.3075 51.3523L39.5462 51.5C39.4325 52.0379 39.1996 52.5076 38.8473 52.9091C38.4988 53.3068 38.0481 53.6174 37.495 53.8409C36.9458 54.0606 36.3113 54.1705 35.5916 54.1705ZM41.1768 54V45.2727H43.5234V46.7955H43.6143C43.7734 46.2538 44.0405 45.8447 44.4155 45.5682C44.7905 45.2879 45.2223 45.1477 45.7109 45.1477C45.8321 45.1477 45.9628 45.1553 46.103 45.1705C46.2431 45.1856 46.3662 45.2064 46.4723 45.233V47.3807C46.3587 47.3466 46.2015 47.3163 46.0007 47.2898C45.8 47.2633 45.6162 47.25 45.4496 47.25C45.0935 47.25 44.7753 47.3277 44.495 47.483C44.2185 47.6345 43.9988 47.8466 43.8359 48.1193C43.6768 48.392 43.5973 48.7064 43.5973 49.0625V54H41.1768ZM56.1257 45.2727L53.0746 54H50.3473L47.2962 45.2727H49.853L51.6655 51.517H51.7564L53.5632 45.2727H56.1257ZM57.3643 54V45.2727H59.7848V54H57.3643ZM58.5803 44.1477C58.2204 44.1477 57.9117 44.0284 57.6541 43.7898C57.4003 43.5473 57.2734 43.2576 57.2734 42.9205C57.2734 42.5871 57.4003 42.3011 57.6541 42.0625C57.9117 41.8201 58.2204 41.6989 58.5803 41.6989C58.9401 41.6989 59.2469 41.8201 59.5007 42.0625C59.7583 42.3011 59.8871 42.5871 59.8871 42.9205C59.8871 43.2576 59.7583 43.5473 59.5007 43.7898C59.2469 44.0284 58.9401 44.1477 58.5803 44.1477ZM65.6669 54.1705C64.773 54.1705 64.004 53.9811 63.3601 53.6023C62.7199 53.2197 62.2275 52.6894 61.8828 52.0114C61.5419 51.3333 61.3714 50.553 61.3714 49.6705C61.3714 48.7765 61.5438 47.9924 61.8885 47.3182C62.237 46.6402 62.7313 46.1117 63.3714 45.733C64.0116 45.3504 64.773 45.1591 65.6555 45.1591C66.4169 45.1591 67.0836 45.2973 67.6555 45.5739C68.2275 45.8504 68.6802 46.2386 69.0135 46.7386C69.3468 47.2386 69.5305 47.8258 69.5646 48.5H67.2805C67.2161 48.0644 67.0457 47.714 66.7692 47.4489C66.4964 47.1799 66.1385 47.0455 65.6953 47.0455C65.3203 47.0455 64.9927 47.1477 64.7124 47.3523C64.4358 47.553 64.2199 47.8466 64.0646 48.233C63.9093 48.6193 63.8317 49.0871 63.8317 49.6364C63.8317 50.1932 63.9074 50.6667 64.0589 51.0568C64.2143 51.447 64.4321 51.7443 64.7124 51.9489C64.9927 52.1534 65.3203 52.2557 65.6953 52.2557C65.9718 52.2557 66.2199 52.1989 66.4396 52.0852C66.6631 51.9716 66.8468 51.8068 66.9908 51.5909C67.1385 51.3712 67.2351 51.108 67.2805 50.8011H69.5646C69.5268 51.4678 69.3449 52.0549 69.0192 52.5625C68.6972 53.0663 68.2521 53.4602 67.6839 53.7443C67.1158 54.0284 66.4434 54.1705 65.6669 54.1705ZM75.0916 54.1705C74.1939 54.1705 73.4212 53.9886 72.7734 53.625C72.1295 53.2576 71.6333 52.7386 71.2848 52.0682C70.9363 51.3939 70.7621 50.5966 70.7621 49.6761C70.7621 48.7784 70.9363 47.9905 71.2848 47.3125C71.6333 46.6345 72.1238 46.1061 72.7564 45.7273C73.3928 45.3485 74.139 45.1591 74.995 45.1591C75.5708 45.1591 76.1068 45.2519 76.603 45.4375C77.103 45.6193 77.5386 45.8939 77.9098 46.2614C78.2848 46.6288 78.5765 47.0909 78.7848 47.6477C78.9931 48.2008 79.0973 48.8485 79.0973 49.5909V50.2557H71.728V48.7557H76.8189C76.8189 48.4072 76.7431 48.0985 76.5916 47.8295C76.4401 47.5606 76.2299 47.3504 75.9609 47.1989C75.6958 47.0436 75.3871 46.9659 75.0348 46.9659C74.6674 46.9659 74.3416 47.0511 74.0575 47.2216C73.7772 47.3883 73.5575 47.6136 73.3984 47.8977C73.2393 48.178 73.1579 48.4905 73.1541 48.8352V50.2614C73.1541 50.6932 73.2337 51.0663 73.3928 51.3807C73.5556 51.6951 73.7848 51.9375 74.0803 52.108C74.3757 52.2784 74.7261 52.3636 75.1314 52.3636C75.4003 52.3636 75.6465 52.3258 75.87 52.25C76.0935 52.1742 76.2848 52.0606 76.4439 51.9091C76.603 51.7576 76.7242 51.572 76.8075 51.3523L79.0462 51.5C78.9325 52.0379 78.6996 52.5076 78.3473 52.9091C77.9988 53.3068 77.5481 53.6174 76.995 53.8409C76.4458 54.0606 75.8113 54.1705 75.0916 54.1705Z" fill="black"/>
</g>
<defs>
<clipPath id="clip0_447_3788">
<rect width="98.375" height="74" fill="white" transform="translate(0.75)"/>
</clipPath>
</defs>
</svg>
