<svg width="100" height="74" viewBox="0 0 100 74" fill="none" xmlns="http://www.w3.org/2000/svg">
<g clip-path="url(#clip0_447_3809)">
<path fill-rule="evenodd" clip-rule="evenodd" d="M60.2818 27.0995L49.1583 15.9757C49.8888 13.2426 48.265 10.4351 45.5324 9.7049C44.563 9.44574 43.5385 9.47728 42.5869 9.79539L45.4618 12.6701C45.7473 12.956 45.7473 13.4191 45.4618 13.7047L43.268 15.8982C42.9825 16.1838 42.5197 16.1838 42.2342 15.8982L39.359 13.0232C38.4626 15.7063 39.9102 18.6081 42.5931 19.5045C43.545 19.8226 44.5692 19.8541 45.5389 19.595L56.6624 30.7195C57.6616 31.7187 59.2823 31.7187 60.2818 30.7195C61.281 29.7199 61.281 28.0991 60.2818 27.0995Z" fill="black"/>
<path d="M22.2862 46.4375H19.7976C19.7521 46.1155 19.6593 45.8295 19.5192 45.5795C19.379 45.3258 19.1991 45.1098 18.9794 44.9318C18.7597 44.7538 18.5059 44.6174 18.218 44.5227C17.9339 44.428 17.6252 44.3807 17.2919 44.3807C16.6896 44.3807 16.165 44.5303 15.718 44.8295C15.2711 45.125 14.9245 45.5568 14.6783 46.125C14.4321 46.6894 14.3089 47.375 14.3089 48.1818C14.3089 49.0114 14.4321 49.7083 14.6783 50.2727C14.9283 50.8371 15.2768 51.2633 15.7237 51.5511C16.1707 51.839 16.6877 51.983 17.2749 51.983C17.6044 51.983 17.9093 51.9394 18.1896 51.8523C18.4737 51.7652 18.7256 51.6383 18.9453 51.4716C19.165 51.3011 19.3468 51.0947 19.4908 50.8523C19.6385 50.6098 19.7408 50.3333 19.7976 50.0227L22.2862 50.0341C22.2218 50.5682 22.0608 51.0833 21.8033 51.5795C21.5495 52.072 21.2067 52.5133 20.7749 52.9034C20.3468 53.2898 19.8355 53.5966 19.2408 53.8239C18.6499 54.0473 17.9813 54.1591 17.2351 54.1591C16.1972 54.1591 15.2692 53.9242 14.451 53.4545C13.6366 52.9848 12.9927 52.3049 12.5192 51.4148C12.0495 50.5246 11.8146 49.447 11.8146 48.1818C11.8146 46.9129 12.0533 45.8333 12.5305 44.9432C13.0078 44.053 13.6555 43.375 14.4737 42.9091C15.2919 42.4394 16.2124 42.2045 17.2351 42.2045C17.9093 42.2045 18.5343 42.2992 19.1101 42.4886C19.6896 42.678 20.2029 42.9545 20.6499 43.3182C21.0968 43.678 21.4605 44.1193 21.7408 44.642C22.0249 45.1648 22.2067 45.7633 22.2862 46.4375ZM27.9482 54.1705C27.0656 54.1705 26.3023 53.983 25.6584 53.608C25.0182 53.2292 24.5239 52.7027 24.1754 52.0284C23.8269 51.3504 23.6527 50.5644 23.6527 49.6705C23.6527 48.7689 23.8269 47.9811 24.1754 47.3068C24.5239 46.6288 25.0182 46.1023 25.6584 45.7273C26.3023 45.3485 27.0656 45.1591 27.9482 45.1591C28.8307 45.1591 29.5921 45.3485 30.2322 45.7273C30.8762 46.1023 31.3724 46.6288 31.7209 47.3068C32.0694 47.9811 32.2436 48.7689 32.2436 49.6705C32.2436 50.5644 32.0694 51.3504 31.7209 52.0284C31.3724 52.7027 30.8762 53.2292 30.2322 53.608C29.5921 53.983 28.8307 54.1705 27.9482 54.1705ZM27.9595 52.2955C28.361 52.2955 28.6963 52.1818 28.9652 51.9545C29.2341 51.7235 29.4368 51.4091 29.5732 51.0114C29.7133 50.6136 29.7834 50.161 29.7834 49.6534C29.7834 49.1458 29.7133 48.6932 29.5732 48.2955C29.4368 47.8977 29.2341 47.5833 28.9652 47.3523C28.6963 47.1212 28.361 47.0057 27.9595 47.0057C27.5542 47.0057 27.2133 47.1212 26.9368 47.3523C26.6641 47.5833 26.4576 47.8977 26.3175 48.2955C26.1811 48.6932 26.1129 49.1458 26.1129 49.6534C26.1129 50.161 26.1811 50.6136 26.3175 51.0114C26.4576 51.4091 26.6641 51.7235 26.9368 51.9545C27.2133 52.1818 27.5542 52.2955 27.9595 52.2955ZM36.2379 48.9545V54H33.8175V45.2727H36.1243V46.8125H36.2266C36.4197 46.3049 36.7436 45.9034 37.1982 45.608C37.6527 45.3087 38.2038 45.1591 38.8516 45.1591C39.4576 45.1591 39.986 45.2917 40.4368 45.5568C40.8875 45.822 41.2379 46.2008 41.4879 46.6932C41.7379 47.1818 41.8629 47.7652 41.8629 48.4432V54H39.4425V48.875C39.4463 48.3409 39.3099 47.9242 39.0334 47.625C38.7569 47.322 38.3762 47.1705 37.8913 47.1705C37.5656 47.1705 37.2777 47.2405 37.0277 47.3807C36.7815 47.5208 36.5883 47.7254 36.4482 47.9943C36.3118 48.2595 36.2417 48.5795 36.2379 48.9545ZM48.4638 45.2727V47.0909H43.0774V45.2727H48.4638ZM44.3104 54V44.642C44.3104 44.0095 44.4335 43.4848 44.6797 43.0682C44.9297 42.6515 45.2706 42.339 45.7024 42.1307C46.1342 41.9223 46.6248 41.8182 47.174 41.8182C47.5452 41.8182 47.8842 41.8466 48.1911 41.9034C48.5017 41.9602 48.7327 42.0114 48.8842 42.0568L48.4524 43.875C48.3577 43.8447 48.2403 43.8163 48.1001 43.7898C47.9638 43.7633 47.8236 43.75 47.6797 43.75C47.3236 43.75 47.0755 43.8333 46.9354 44C46.7952 44.1629 46.7251 44.392 46.7251 44.6875V54H44.3104ZM49.9425 54V45.2727H52.3629V54H49.9425ZM51.1584 44.1477C50.7985 44.1477 50.4898 44.0284 50.2322 43.7898C49.9785 43.5473 49.8516 43.2576 49.8516 42.9205C49.8516 42.5871 49.9785 42.3011 50.2322 42.0625C50.4898 41.8201 50.7985 41.6989 51.1584 41.6989C51.5182 41.6989 51.825 41.8201 52.0788 42.0625C52.3364 42.3011 52.4652 42.5871 52.4652 42.9205C52.4652 43.2576 52.3364 43.5473 52.0788 43.7898C51.825 44.0284 51.5182 44.1477 51.1584 44.1477ZM58.2337 57.4545C57.4496 57.4545 56.7772 57.3466 56.2166 57.1307C55.6598 56.9186 55.2166 56.6288 54.8871 56.2614C54.5575 55.8939 54.3435 55.4811 54.245 55.0227L56.4837 54.7216C56.5518 54.8958 56.6598 55.0587 56.8075 55.2102C56.9553 55.3617 57.1503 55.483 57.3928 55.5739C57.639 55.6686 57.9382 55.7159 58.2905 55.7159C58.817 55.7159 59.2507 55.5871 59.5916 55.3295C59.9363 55.0758 60.1087 54.6496 60.1087 54.0511V52.4545H60.0064C59.9003 52.697 59.7412 52.9261 59.5291 53.142C59.317 53.358 59.0443 53.5341 58.7109 53.6705C58.3776 53.8068 57.9799 53.875 57.5178 53.875C56.8625 53.875 56.2659 53.7235 55.728 53.4205C55.1939 53.1136 54.7678 52.6458 54.4496 52.017C54.1352 51.3845 53.978 50.5852 53.978 49.6193C53.978 48.6307 54.139 47.8049 54.4609 47.142C54.7829 46.4792 55.2109 45.983 55.745 45.6534C56.2829 45.3239 56.8719 45.1591 57.5121 45.1591C58.0007 45.1591 58.4098 45.2424 58.7393 45.4091C59.0689 45.572 59.334 45.7765 59.5348 46.0227C59.7393 46.2652 59.8965 46.5038 60.0064 46.7386H60.0973V45.2727H62.5007V54.0852C62.5007 54.8277 62.3189 55.4489 61.9553 55.9489C61.5916 56.4489 61.0878 56.8239 60.4439 57.0739C59.8037 57.3277 59.067 57.4545 58.2337 57.4545ZM58.2848 52.0568C58.675 52.0568 59.0045 51.9602 59.2734 51.767C59.5462 51.5701 59.7545 51.2898 59.8984 50.9261C60.0462 50.5587 60.12 50.1193 60.12 49.608C60.12 49.0966 60.0481 48.6534 59.9041 48.2784C59.7602 47.8996 59.5518 47.6061 59.2791 47.3977C59.0064 47.1894 58.675 47.0852 58.2848 47.0852C57.8871 47.0852 57.5518 47.1932 57.2791 47.4091C57.0064 47.6212 56.8 47.9167 56.6598 48.2955C56.5196 48.6742 56.4496 49.1117 56.4496 49.608C56.4496 50.1117 56.5196 50.5473 56.6598 50.9148C56.8037 51.2784 57.0102 51.5606 57.2791 51.7614C57.5518 51.9583 57.8871 52.0568 58.2848 52.0568ZM70.0234 50.2841V45.2727H72.4439V54H70.12V52.4148H70.0291C69.8321 52.9261 69.5045 53.3371 69.0462 53.6477C68.5916 53.9583 68.0367 54.1136 67.3814 54.1136C66.7981 54.1136 66.2848 53.9811 65.8416 53.7159C65.3984 53.4508 65.0518 53.0739 64.8018 52.5852C64.5556 52.0966 64.4306 51.5114 64.4268 50.8295V45.2727H66.8473V50.3977C66.8511 50.9129 66.9893 51.3201 67.2621 51.6193C67.5348 51.9186 67.9003 52.0682 68.3587 52.0682C68.6503 52.0682 68.9231 52.0019 69.1768 51.8693C69.4306 51.733 69.6352 51.5322 69.7905 51.267C69.9496 51.0019 70.0272 50.6742 70.0234 50.2841ZM74.38 54V45.2727H76.7266V46.7955H76.8175C76.9766 46.2538 77.2436 45.8447 77.6186 45.5682C77.9936 45.2879 78.4254 45.1477 78.9141 45.1477C79.0353 45.1477 79.166 45.1553 79.3061 45.1705C79.4463 45.1856 79.5694 45.2064 79.6754 45.233V47.3807C79.5618 47.3466 79.4046 47.3163 79.2038 47.2898C79.0031 47.2633 78.8194 47.25 78.6527 47.25C78.2966 47.25 77.9785 47.3277 77.6982 47.483C77.4216 47.6345 77.2019 47.8466 77.0391 48.1193C76.88 48.392 76.8004 48.7064 76.8004 49.0625V54H74.38ZM84.4979 54.1705C83.6001 54.1705 82.8274 53.9886 82.1797 53.625C81.5357 53.2576 81.0395 52.7386 80.6911 52.0682C80.3426 51.3939 80.1683 50.5966 80.1683 49.6761C80.1683 48.7784 80.3426 47.9905 80.6911 47.3125C81.0395 46.6345 81.5301 46.1061 82.1626 45.7273C82.799 45.3485 83.5452 45.1591 84.4013 45.1591C84.977 45.1591 85.513 45.2519 86.0092 45.4375C86.5092 45.6193 86.9448 45.8939 87.3161 46.2614C87.6911 46.6288 87.9827 47.0909 88.1911 47.6477C88.3994 48.2008 88.5036 48.8485 88.5036 49.5909V50.2557H81.1342V48.7557H86.2251C86.2251 48.4072 86.1494 48.0985 85.9979 47.8295C85.8464 47.5606 85.6361 47.3504 85.3672 47.1989C85.102 47.0436 84.7933 46.9659 84.4411 46.9659C84.0736 46.9659 83.7479 47.0511 83.4638 47.2216C83.1835 47.3883 82.9638 47.6136 82.8047 47.8977C82.6456 48.178 82.5642 48.4905 82.5604 48.8352V50.2614C82.5604 50.6932 82.6399 51.0663 82.799 51.3807C82.9619 51.6951 83.1911 51.9375 83.4865 52.108C83.782 52.2784 84.1323 52.3636 84.5376 52.3636C84.8066 52.3636 85.0528 52.3258 85.2763 52.25C85.4998 52.1742 85.6911 52.0606 85.8501 51.9091C86.0092 51.7576 86.1304 51.572 86.2138 51.3523L88.4524 51.5C88.3388 52.0379 88.1058 52.5076 87.7536 52.9091C87.4051 53.3068 86.9543 53.6174 86.4013 53.8409C85.852 54.0606 85.2176 54.1705 84.4979 54.1705Z" fill="black"/>
</g>
<defs>
<clipPath id="clip0_447_3809">
<rect width="98.375" height="74" fill="white" transform="translate(0.875)"/>
</clipPath>
</defs>
</svg>
