<svg width="99" height="74" viewBox="0 0 99 74" fill="none" xmlns="http://www.w3.org/2000/svg">
<g clip-path="url(#clip0_447_3800)">
<path fill-rule="evenodd" clip-rule="evenodd" d="M53.4368 17.6214H46.268V14.023C46.268 12.0361 47.8728 10.425 49.8524 10.425C51.832 10.425 53.4368 12.0361 53.4368 14.023V17.6214ZM50.9004 25.2636L51.2862 29.1358H48.4185L48.8043 25.2636C47.7669 24.6829 47.3956 23.3677 47.9744 22.3266C48.5533 21.2852 49.863 20.912 50.9004 21.4931C51.9374 22.0743 52.3091 23.3895 51.7306 24.4309C51.536 24.7804 51.2485 25.0686 50.9004 25.2636ZM56.304 17.6215H55.5869V14.023C55.5869 10.8566 53.0064 8.26562 49.8523 8.26562C46.6982 8.26562 44.1173 10.8566 44.1173 14.023V17.6215H41.25V30.5754C41.25 31.7679 42.2128 32.7344 43.4002 32.7344H58.4546V19.7801C58.4546 18.588 57.4915 17.6215 56.304 17.6215Z" fill="black"/>
<path d="M24.0661 45.7102C24.0206 45.2519 23.8255 44.8958 23.4808 44.642C23.1361 44.3883 22.6683 44.2614 22.0774 44.2614C21.6759 44.2614 21.3369 44.3182 21.0604 44.4318C20.7839 44.5417 20.5717 44.6951 20.424 44.892C20.2801 45.089 20.2081 45.3125 20.2081 45.5625C20.2005 45.7708 20.2441 45.9527 20.3388 46.108C20.4373 46.2633 20.5717 46.3977 20.7422 46.5114C20.9126 46.6212 21.1096 46.7178 21.3331 46.8011C21.5566 46.8807 21.7952 46.9489 22.049 47.0057L23.0945 47.2557C23.602 47.3693 24.0679 47.5208 24.4922 47.7102C24.9164 47.8996 25.2839 48.1326 25.5945 48.4091C25.9051 48.6856 26.1456 49.0114 26.3161 49.3864C26.4903 49.7614 26.5793 50.1913 26.5831 50.6761C26.5793 51.3883 26.3975 52.0057 26.0376 52.5284C25.6816 53.0473 25.1664 53.4508 24.4922 53.7386C23.8217 54.0227 23.013 54.1648 22.0661 54.1648C21.1267 54.1648 20.3085 54.0208 19.6115 53.733C18.9183 53.4451 18.3767 53.0189 17.9865 52.4545C17.6001 51.8864 17.3975 51.1837 17.3786 50.3466H19.7592C19.7857 50.7367 19.8975 51.0625 20.0945 51.3239C20.2952 51.5814 20.5623 51.7765 20.8956 51.9091C21.2327 52.0379 21.6134 52.1023 22.0376 52.1023C22.4543 52.1023 22.8161 52.0417 23.1229 51.9205C23.4335 51.7992 23.674 51.6307 23.8445 51.4148C24.0149 51.1989 24.1001 50.9508 24.1001 50.6705C24.1001 50.4091 24.0225 50.1894 23.8672 50.0114C23.7157 49.8333 23.4922 49.6818 23.1967 49.5568C22.9051 49.4318 22.5471 49.3182 22.1229 49.2159L20.8558 48.8977C19.8748 48.6591 19.1001 48.286 18.532 47.7784C17.9638 47.2708 17.6816 46.5871 17.6854 45.7273C17.6816 45.0227 17.8691 44.4072 18.2479 43.8807C18.6304 43.3542 19.1551 42.9432 19.8217 42.6477C20.4884 42.3523 21.246 42.2045 22.0945 42.2045C22.9581 42.2045 23.7119 42.3523 24.3558 42.6477C25.0036 42.9432 25.5073 43.3542 25.8672 43.8807C26.227 44.4072 26.4126 45.017 26.424 45.7102H24.0661ZM32.1697 54.1705C31.272 54.1705 30.4993 53.9886 29.8516 53.625C29.2076 53.2576 28.7114 52.7386 28.3629 52.0682C28.0144 51.3939 27.8402 50.5966 27.8402 49.6761C27.8402 48.7784 28.0144 47.9905 28.3629 47.3125C28.7114 46.6345 29.2019 46.1061 29.8345 45.7273C30.4709 45.3485 31.2171 45.1591 32.0732 45.1591C32.6489 45.1591 33.1849 45.2519 33.6811 45.4375C34.1811 45.6193 34.6167 45.8939 34.9879 46.2614C35.3629 46.6288 35.6546 47.0909 35.8629 47.6477C36.0713 48.2008 36.1754 48.8485 36.1754 49.5909V50.2557H28.8061V48.7557H33.897C33.897 48.4072 33.8213 48.0985 33.6697 47.8295C33.5182 47.5606 33.308 47.3504 33.0391 47.1989C32.7739 47.0436 32.4652 46.9659 32.1129 46.9659C31.7455 46.9659 31.4197 47.0511 31.1357 47.2216C30.8554 47.3883 30.6357 47.6136 30.4766 47.8977C30.3175 48.178 30.236 48.4905 30.2322 48.8352V50.2614C30.2322 50.6932 30.3118 51.0663 30.4709 51.3807C30.6338 51.6951 30.8629 51.9375 31.1584 52.108C31.4538 52.2784 31.8042 52.3636 32.2095 52.3636C32.4785 52.3636 32.7247 52.3258 32.9482 52.25C33.1716 52.1742 33.3629 52.0606 33.522 51.9091C33.6811 51.7576 33.8023 51.572 33.8857 51.3523L36.1243 51.5C36.0107 52.0379 35.7777 52.5076 35.4254 52.9091C35.0769 53.3068 34.6262 53.6174 34.0732 53.8409C33.5239 54.0606 32.8894 54.1705 32.1697 54.1705ZM41.6982 54.1705C40.8042 54.1705 40.0353 53.9811 39.3913 53.6023C38.7512 53.2197 38.2588 52.6894 37.9141 52.0114C37.5732 51.3333 37.4027 50.553 37.4027 49.6705C37.4027 48.7765 37.575 47.9924 37.9197 47.3182C38.2682 46.6402 38.7625 46.1117 39.4027 45.733C40.0429 45.3504 40.8042 45.1591 41.6868 45.1591C42.4482 45.1591 43.1148 45.2973 43.6868 45.5739C44.2588 45.8504 44.7114 46.2386 45.0447 46.7386C45.3781 47.2386 45.5618 47.8258 45.5959 48.5H43.3118C43.2474 48.0644 43.0769 47.714 42.8004 47.4489C42.5277 47.1799 42.1697 47.0455 41.7266 47.0455C41.3516 47.0455 41.0239 47.1477 40.7436 47.3523C40.4671 47.553 40.2512 47.8466 40.0959 48.233C39.9406 48.6193 39.8629 49.0871 39.8629 49.6364C39.8629 50.1932 39.9387 50.6667 40.0902 51.0568C40.2455 51.447 40.4633 51.7443 40.7436 51.9489C41.0239 52.1534 41.3516 52.2557 41.7266 52.2557C42.0031 52.2557 42.2512 52.1989 42.4709 52.0852C42.6944 51.9716 42.8781 51.8068 43.022 51.5909C43.1697 51.3712 43.2663 51.108 43.3118 50.8011H45.5959C45.558 51.4678 45.3762 52.0549 45.0504 52.5625C44.7285 53.0663 44.2834 53.4602 43.7152 53.7443C43.147 54.0284 42.4747 54.1705 41.6982 54.1705ZM52.7422 50.2841V45.2727H55.1626V54H52.8388V52.4148H52.7479C52.5509 52.9261 52.2232 53.3371 51.7649 53.6477C51.3104 53.9583 50.7554 54.1136 50.1001 54.1136C49.5168 54.1136 49.0036 53.9811 48.5604 53.7159C48.1172 53.4508 47.7706 53.0739 47.5206 52.5852C47.2744 52.0966 47.1494 51.5114 47.1456 50.8295V45.2727H49.5661V50.3977C49.5698 50.9129 49.7081 51.3201 49.9808 51.6193C50.2536 51.9186 50.6191 52.0682 51.0774 52.0682C51.3691 52.0682 51.6418 52.0019 51.8956 51.8693C52.1494 51.733 52.3539 51.5322 52.5092 51.267C52.6683 51.0019 52.746 50.6742 52.7422 50.2841ZM57.0987 54V45.2727H59.4453V46.7955H59.5362C59.6953 46.2538 59.9624 45.8447 60.3374 45.5682C60.7124 45.2879 61.1442 45.1477 61.6328 45.1477C61.754 45.1477 61.8847 45.1553 62.0249 45.1705C62.165 45.1856 62.2881 45.2064 62.3942 45.233V47.3807C62.2805 47.3466 62.1233 47.3163 61.9226 47.2898C61.7218 47.2633 61.5381 47.25 61.3714 47.25C61.0154 47.25 60.6972 47.3277 60.4169 47.483C60.1404 47.6345 59.9207 47.8466 59.7578 48.1193C59.5987 48.392 59.5192 48.7064 59.5192 49.0625V54H57.0987ZM63.6456 54V45.2727H66.0661V54H63.6456ZM64.8615 44.1477C64.5017 44.1477 64.1929 44.0284 63.9354 43.7898C63.6816 43.5473 63.5547 43.2576 63.5547 42.9205C63.5547 42.5871 63.6816 42.3011 63.9354 42.0625C64.1929 41.8201 64.5017 41.6989 64.8615 41.6989C65.2214 41.6989 65.5282 41.8201 65.782 42.0625C66.0395 42.3011 66.1683 42.5871 66.1683 42.9205C66.1683 43.2576 66.0395 43.5473 65.782 43.7898C65.5282 44.0284 65.2214 44.1477 64.8615 44.1477ZM72.647 45.2727V47.0909H67.3913V45.2727H72.647ZM68.5845 43.1818H71.005V51.3182C71.005 51.5417 71.0391 51.7159 71.1072 51.8409C71.1754 51.9621 71.2701 52.0473 71.3913 52.0966C71.5163 52.1458 71.6603 52.1705 71.8232 52.1705C71.9368 52.1705 72.0504 52.161 72.1641 52.142C72.2777 52.1193 72.3648 52.1023 72.4254 52.0909L72.8061 53.892C72.6849 53.9299 72.5144 53.9735 72.2947 54.0227C72.075 54.0758 71.808 54.108 71.4936 54.1193C70.9103 54.142 70.3989 54.0644 69.9595 53.8864C69.5239 53.7083 69.1849 53.4318 68.9425 53.0568C68.7 52.6818 68.5807 52.2083 68.5845 51.6364V43.1818ZM75.718 57.2727C75.4112 57.2727 75.1233 57.2481 74.8544 57.1989C74.5893 57.1534 74.3696 57.0947 74.1953 57.0227L74.7408 55.2159C75.0249 55.303 75.2805 55.3504 75.5078 55.358C75.7389 55.3655 75.9377 55.3125 76.1044 55.1989C76.2749 55.0852 76.4131 54.892 76.5192 54.6193L76.6612 54.25L73.5305 45.2727H76.076L77.8828 51.6818H77.9737L79.7976 45.2727H82.3601L78.968 54.9432C78.8052 55.4129 78.5836 55.822 78.3033 56.1705C78.0268 56.5227 77.6764 56.7936 77.2521 56.983C76.8279 57.1761 76.3165 57.2727 75.718 57.2727Z" fill="black"/>
</g>
<defs>
<clipPath id="clip0_447_3800">
<rect width="98.375" height="74" fill="white" transform="translate(0.5)"/>
</clipPath>
</defs>
</svg>
