<svg width="18" height="18" viewBox="0 0 18 18" fill="none" xmlns="http://www.w3.org/2000/svg">
<path fill-rule="evenodd" clip-rule="evenodd" d="M15.3984 7.51465H10.4854V2.60156C10.4854 2.09677 10.0761 1.6875 9.57129 1.6875H8.42871C7.92392 1.6875 7.51465 2.09677 7.51465 2.60156V7.51465H2.60156C2.09677 7.51465 1.6875 7.92392 1.6875 8.42871V9.57129C1.6875 10.0761 2.09677 10.4854 2.60156 10.4854H7.51465V15.3984C7.51465 15.9032 7.92392 16.3125 8.42871 16.3125H9.57129C10.0761 16.3125 10.4854 15.9032 10.4854 15.3984V10.4854H15.3984C15.9032 10.4854 16.3125 10.0761 16.3125 9.57129V8.42871C16.3125 7.92392 15.9032 7.51465 15.3984 7.51465Z" fill="white"/>
</svg>
