<svg width="16" height="15" viewBox="0 0 16 15" fill="none" xmlns="http://www.w3.org/2000/svg">
<path fill-rule="evenodd" clip-rule="evenodd" d="M9.9118 11.2059H6.47066V10.8123L6.55151 10.8098C6.78936 10.8021 6.96608 10.7345 7.07699 10.6089C7.1164 10.5634 7.18343 10.4084 7.18343 9.88763V6.41277C7.18343 5.91735 7.11436 5.73067 7.05627 5.66121C6.97441 5.5635 6.80358 5.50602 6.54886 5.49058L6.47066 5.48591V5.08819H9.14704V9.88763C9.14704 10.3833 9.27643 10.5699 9.33411 10.6392C9.41597 10.7369 9.57401 10.7944 9.83319 10.8098L9.9118 10.8143V11.2059ZM8.00001 2.02934C8.63356 2.02934 9.14706 2.54304 9.14706 3.17659C9.14706 3.80993 8.63356 4.32343 8.00001 4.32343C7.36646 4.32343 6.85276 3.80993 6.85276 3.17659C6.85276 2.54304 7.36646 2.02934 8.00001 2.02934ZM8 0.5C4.41017 0.5 1.5 3.41017 1.5 7C1.5 10.5898 4.41017 13.5 8 13.5C11.5898 13.5 14.5 10.5898 14.5 7C14.5 3.41017 11.5898 0.5 8 0.5Z" fill="black"/>
</svg>
