<svg width="19" height="21" viewBox="0 0 19 21" fill="none" xmlns="http://www.w3.org/2000/svg">
<path fill-rule="evenodd" clip-rule="evenodd" d="M17.523 11.071C17.5197 11.0746 17.5166 11.0777 17.5129 11.081L16.8149 11.7779L15.6305 10.5951L16.5235 9.70354L17.512 10.6907C17.6219 10.8004 17.6268 10.9674 17.523 11.071ZM16.2332 12.3537C16.2304 12.3577 16.2268 12.3611 16.2228 12.3644C14.6415 13.9442 11.3212 17.2604 10.2967 18.2839L7.77754 19.5831L9.11249 17.1008L15.2248 11.0037L16.2225 11.9735C16.2735 12.0238 16.304 12.0914 16.3076 12.1627C16.311 12.234 16.2838 12.3035 16.2332 12.3537ZM5.55629 12.0557C5.36768 11.7608 5.04355 10.6978 4.96756 10.7008C4.94192 10.7032 4.91873 10.7172 4.90499 10.7389C4.88882 10.7608 3.08812 13.7026 3.02555 13.7465L2.33244 12.9412C2.87601 12.2066 4.13314 10.2081 4.26346 10.078C5.62405 8.71941 6.06446 11.1182 6.18104 11.354C6.49479 10.8218 8.04156 7.69749 8.23353 7.69719C8.51066 7.69658 9.70949 9.40161 10.1569 9.92963C10.2937 10.0914 10.8091 10.5716 11.2807 10.5713C12.2656 10.5707 14.0675 8.28432 14.0675 8.28432C13.697 8.97566 12.6394 11.3056 11.1662 11.4698C10.4807 11.5463 10.109 11.2023 9.88193 11.0204C9.03164 10.3404 8.5601 9.07925 8.32967 9.07925C8.27962 9.07925 8.27168 9.1085 8.25551 9.13044C8.24513 9.14445 7.22026 11.805 7.08567 12.0018C6.78199 12.4448 6.00738 12.7626 5.55629 12.0557ZM18.1715 10.8662C18.1648 10.6475 18.0742 10.4397 17.9185 10.2852L16.9297 9.2977L16.5237 8.89247L16.1178 9.2977L15.4369 9.97259V6.48513H11.9845C10.7176 6.48452 9.69148 5.45864 9.69209 4.19449V4.19114V0.75H0.5V19.098H0.500305C0.500305 19.0995 0.5 19.101 0.5 19.1029C0.5 19.7363 1.01396 20.2497 1.64817 20.25H15.4369V13.964L17.9097 11.4957C17.9182 11.4875 17.9265 11.4793 17.9353 11.4704C18.0925 11.3089 18.1779 11.0911 18.1715 10.8662ZM11.8569 5.33829H15.4369L10.8409 0.75V4.19114C10.8409 4.82459 11.2929 5.33829 11.8569 5.33829Z" fill="black"/>
</svg>
