<svg width="99" height="83" viewBox="0 0 99 52" fill="none" xmlns="http://www.w3.org/2000/svg">
<path fill-rule="evenodd" clip-rule="evenodd" d="M48.298 6.33414C48.2924 6.3397 48.1659 6.3512 48.0195 6.35954C45.9873 6.49207 43.6459 7.25748 41.6168 8.45461C40.3195 9.21963 39.3287 9.98227 38.338 10.9786C37.6739 11.6476 37.1953 12.2408 36.7844 12.9015L36.7282 12.9921C36.5752 13.2387 36.523 13.323 36.5323 13.3997C36.5371 13.4396 36.5586 13.4774 36.5911 13.5349L36.6127 13.5733C36.8603 14.022 37.3306 14.6859 37.7356 15.1489C39.8239 17.5547 42.9845 19.4292 46.1198 20.1295C46.5027 20.2144 47.0711 20.3128 47.3582 20.3442C47.4512 20.3525 47.5496 20.3668 47.575 20.3723C47.8621 20.4259 49.7618 20.4485 50.3416 20.4061C53.0153 20.2085 55.9169 19.0566 58.36 17.2269C59.3646 16.473 60.4286 15.4338 61.0701 14.5815C61.2924 14.2851 61.5459 13.901 61.7116 13.6157L61.8438 13.384L61.7116 13.1495C61.5174 12.8106 61.1405 12.2543 60.921 11.9778C60.5722 11.5401 59.8994 10.8286 59.4714 10.4418C59.2574 10.2497 59.1843 10.1878 58.9394 9.98148C57.1015 8.43993 54.6504 7.19479 52.4521 6.68649C51.7793 6.53135 51.3771 6.46072 50.8902 6.40715C50.7709 6.39469 50.6487 6.37927 50.5728 6.36969L50.5727 6.36968L50.5725 6.36966L50.5724 6.36964C50.5445 6.36613 50.523 6.36341 50.5101 6.36192C50.4116 6.34208 48.3177 6.31668 48.298 6.33374V6.33414ZM49.8767 8.35251C51.2725 8.5644 52.5476 9.3691 53.3244 10.5293C54.1068 11.7011 54.3686 13.0533 54.0814 14.4651C53.7832 15.9476 52.7082 17.3026 51.3037 17.9692C50.8026 18.2065 50.3189 18.3505 49.781 18.4212C49.5021 18.4581 48.6806 18.4581 48.4694 18.4212C47.8979 18.3252 47.583 18.2347 47.1381 18.0486C46.0801 17.6026 45.1344 16.713 44.6162 15.6769C44.3319 15.104 44.2081 14.6917 44.093 13.9037C44.0704 13.7569 44.0704 13.0057 44.093 12.8589C44.2085 12.0796 44.3323 11.6562 44.6162 11.0856C45.3397 9.63733 46.7888 8.58702 48.3848 8.35807C48.4447 8.34921 48.5077 8.3396 48.5599 8.33163L48.56 8.33162L48.5601 8.3316L48.5603 8.33157C48.6085 8.32422 48.6474 8.31827 48.6664 8.31561C48.8044 8.29577 49.6682 8.32117 49.8767 8.35251ZM59.6962 13.1667C58.5706 11.7014 56.8509 10.3376 54.9231 9.38606L54.9227 9.38566L54.8873 9.36816C54.5789 9.21577 54.461 9.15752 54.4472 9.1762C54.4386 9.18776 54.4699 9.22876 54.5206 9.29514L54.5315 9.30948C55.2692 10.2808 55.7671 11.5855 55.8629 12.7882C55.9922 14.4115 55.5757 15.9617 54.6498 17.2858C54.5343 17.4521 54.4445 17.5878 54.4528 17.5878C54.4868 17.5878 55.4578 17.0882 55.7561 16.9188C56.4791 16.5065 57.405 15.8542 58.0525 15.3066C58.6323 14.8126 59.7073 13.6663 59.8173 13.4207C59.8426 13.3699 59.8228 13.3306 59.6962 13.1667ZM43.6377 9.44823C43.1872 10.0835 42.8439 10.7977 42.6441 11.5124C42.2727 12.8337 42.3008 14.2284 42.7284 15.5275C42.9309 16.1485 43.3165 16.8969 43.6741 17.3683C43.7445 17.4615 43.7979 17.5405 43.7923 17.546C43.7809 17.5603 42.9649 17.148 42.6722 16.9842C41.1214 16.1005 39.7339 14.9542 38.7827 13.7654C38.6589 13.613 38.5462 13.4574 38.5295 13.4209C38.5015 13.3646 38.5295 13.3194 38.7771 13.0087C39.3174 12.3337 40.2323 11.4699 41.0541 10.8545C41.4058 10.589 42.1489 10.0978 42.5037 9.89185C42.7964 9.72242 43.7532 9.23119 43.7646 9.24507C43.7702 9.25063 43.714 9.3411 43.6381 9.44823H43.6377ZM46.1482 12.5908C46.4943 11.3286 47.5527 10.4283 48.85 10.2926H48.8496C49.1028 10.2668 49.6039 10.3065 49.8713 10.3771C50.0204 10.414 50.1497 10.4449 50.1584 10.4449C50.1671 10.4449 50.1105 10.4787 50.0318 10.5184C49.7166 10.6795 49.4607 10.956 49.3424 11.2639C49.2467 11.5012 49.2357 11.8825 49.3088 12.1309C49.4832 12.7071 49.9927 13.0967 50.578 13.1023C50.9186 13.1055 51.1519 13.032 51.4363 12.8229C51.5997 12.7015 51.7966 12.4444 51.8643 12.2611C51.8896 12.1849 51.9204 12.1147 51.9319 12.1032C51.977 12.0524 52.174 12.7214 52.2021 13.015C52.312 14.1724 51.8698 15.1946 50.9609 15.8806C50.7809 16.0159 50.3166 16.2588 50.0999 16.3294C49.596 16.4933 48.9177 16.5215 48.428 16.3973C48.0309 16.2953 47.7441 16.1683 47.4119 15.9453C46.7253 15.485 46.2554 14.7704 46.0948 13.932C46.0272 13.5788 46.0525 12.938 46.1482 12.5908Z" fill="black"/>
<path d="M23.478 41.1818C23.478 42.4508 23.2375 43.5303 22.7564 44.4205C22.2791 45.3106 21.6276 45.9905 20.8018 46.4602C19.9799 46.9261 19.0556 47.1591 18.0291 47.1591C16.995 47.1591 16.067 46.9242 15.245 46.4545C14.4231 45.9848 13.7734 45.3049 13.2962 44.4148C12.8189 43.5246 12.5803 42.447 12.5803 41.1818C12.5803 39.9129 12.8189 38.8333 13.2962 37.9432C13.7734 37.053 14.4231 36.375 15.245 35.9091C16.067 35.4394 16.995 35.2045 18.0291 35.2045C19.0556 35.2045 19.9799 35.4394 20.8018 35.9091C21.6276 36.375 22.2791 37.053 22.7564 37.9432C23.2375 38.8333 23.478 39.9129 23.478 41.1818ZM20.9837 41.1818C20.9837 40.3598 20.8606 39.6667 20.6143 39.1023C20.3719 38.5379 20.0291 38.1098 19.5859 37.8182C19.1428 37.5265 18.6238 37.3807 18.0291 37.3807C17.4344 37.3807 16.9155 37.5265 16.4723 37.8182C16.0291 38.1098 15.6844 38.5379 15.4382 39.1023C15.1958 39.6667 15.0746 40.3598 15.0746 41.1818C15.0746 42.0038 15.1958 42.697 15.4382 43.2614C15.6844 43.8258 16.0291 44.2538 16.4723 44.5455C16.9155 44.8371 17.4344 44.983 18.0291 44.983C18.6238 44.983 19.1428 44.8371 19.5859 44.5455C20.0291 44.2538 20.3719 43.8258 20.6143 43.2614C20.8606 42.697 20.9837 42.0038 20.9837 41.1818ZM33.3913 38.2727L30.3402 47H27.6129L24.5618 38.2727H27.1186L28.9311 44.517H29.022L30.8288 38.2727H33.3913ZM38.326 47.1705C37.4283 47.1705 36.6555 46.9886 36.0078 46.625C35.3639 46.2576 34.8677 45.7386 34.5192 45.0682C34.1707 44.3939 33.9964 43.5966 33.9964 42.6761C33.9964 41.7784 34.1707 40.9905 34.5192 40.3125C34.8677 39.6345 35.3582 39.1061 35.9908 38.7273C36.6271 38.3485 37.3733 38.1591 38.2294 38.1591C38.8052 38.1591 39.3411 38.2519 39.8374 38.4375C40.3374 38.6193 40.773 38.8939 41.1442 39.2614C41.5192 39.6288 41.8108 40.0909 42.0192 40.6477C42.2275 41.2008 42.3317 41.8485 42.3317 42.5909V43.2557H34.9624V41.7557H40.0533C40.0533 41.4072 39.9775 41.0985 39.826 40.8295C39.6745 40.5606 39.4643 40.3504 39.1953 40.1989C38.9302 40.0436 38.6214 39.9659 38.2692 39.9659C37.9018 39.9659 37.576 40.0511 37.2919 40.2216C37.0116 40.3883 36.7919 40.6136 36.6328 40.8977C36.4737 41.178 36.3923 41.4905 36.3885 41.8352V43.2614C36.3885 43.6932 36.468 44.0663 36.6271 44.3807C36.79 44.6951 37.0192 44.9375 37.3146 45.108C37.6101 45.2784 37.9605 45.3636 38.3658 45.3636C38.6347 45.3636 38.8809 45.3258 39.1044 45.25C39.3279 45.1742 39.5192 45.0606 39.6783 44.9091C39.8374 44.7576 39.9586 44.572 40.0419 44.3523L42.2805 44.5C42.1669 45.0379 41.9339 45.5076 41.5817 45.9091C41.2332 46.3068 40.7824 46.6174 40.2294 46.8409C39.6802 47.0606 39.0457 47.1705 38.326 47.1705ZM43.9112 47V38.2727H46.2578V39.7955H46.3487C46.5078 39.2538 46.7749 38.8447 47.1499 38.5682C47.5249 38.2879 47.9567 38.1477 48.4453 38.1477C48.5665 38.1477 48.6972 38.1553 48.8374 38.1705C48.9775 38.1856 49.1006 38.2064 49.2067 38.233V40.3807C49.093 40.3466 48.9358 40.3163 48.7351 40.2898C48.5343 40.2633 48.3506 40.25 48.1839 40.25C47.8279 40.25 47.5097 40.3277 47.2294 40.483C46.9529 40.6345 46.7332 40.8466 46.5703 41.1193C46.4112 41.392 46.3317 41.7064 46.3317 42.0625V47H43.9112ZM58.8601 38.2727L55.8089 47H53.0817L50.0305 38.2727H52.5874L54.3999 44.517H54.4908L56.2976 38.2727H58.8601ZM60.0987 47V38.2727H62.5192V47H60.0987ZM61.3146 37.1477C60.9548 37.1477 60.6461 37.0284 60.3885 36.7898C60.1347 36.5473 60.0078 36.2576 60.0078 35.9205C60.0078 35.5871 60.1347 35.3011 60.3885 35.0625C60.6461 34.8201 60.9548 34.6989 61.3146 34.6989C61.6745 34.6989 61.9813 34.8201 62.2351 35.0625C62.4927 35.3011 62.6214 35.5871 62.6214 35.9205C62.6214 36.2576 62.4927 36.5473 62.2351 36.7898C61.9813 37.0284 61.6745 37.1477 61.3146 37.1477ZM68.4354 47.1705C67.5376 47.1705 66.7649 46.9886 66.1172 46.625C65.4732 46.2576 64.977 45.7386 64.6286 45.0682C64.2801 44.3939 64.1058 43.5966 64.1058 42.6761C64.1058 41.7784 64.2801 40.9905 64.6286 40.3125C64.977 39.6345 65.4676 39.1061 66.1001 38.7273C66.7365 38.3485 67.4827 38.1591 68.3388 38.1591C68.9145 38.1591 69.4505 38.2519 69.9467 38.4375C70.4467 38.6193 70.8823 38.8939 71.2536 39.2614C71.6286 39.6288 71.9202 40.0909 72.1286 40.6477C72.3369 41.2008 72.4411 41.8485 72.4411 42.5909V43.2557H65.0717V41.7557H70.1626C70.1626 41.4072 70.0869 41.0985 69.9354 40.8295C69.7839 40.5606 69.5736 40.3504 69.3047 40.1989C69.0395 40.0436 68.7308 39.9659 68.3786 39.9659C68.0111 39.9659 67.6854 40.0511 67.4013 40.2216C67.121 40.3883 66.9013 40.6136 66.7422 40.8977C66.5831 41.178 66.5017 41.4905 66.4979 41.8352V43.2614C66.4979 43.6932 66.5774 44.0663 66.7365 44.3807C66.8994 44.6951 67.1286 44.9375 67.424 45.108C67.7195 45.2784 68.0698 45.3636 68.4751 45.3636C68.7441 45.3636 68.9903 45.3258 69.2138 45.25C69.4373 45.1742 69.6286 45.0606 69.7876 44.9091C69.9467 44.7576 70.0679 44.572 70.1513 44.3523L72.3899 44.5C72.2763 45.0379 72.0433 45.5076 71.6911 45.9091C71.3426 46.3068 70.8918 46.6174 70.3388 46.8409C69.7895 47.0606 69.1551 47.1705 68.4354 47.1705ZM75.6797 47L73.3047 38.2727H75.7536L77.1058 44.1364H77.1854L78.5945 38.2727H80.9979L82.4297 44.1023H82.5036L83.8331 38.2727H86.2763L83.907 47H81.3445L79.8445 41.5114H79.7365L78.2365 47H75.6797Z" fill="black"/>
</svg>
