<svg width="27" height="15" viewBox="0 0 27 15" fill="none" xmlns="http://www.w3.org/2000/svg">
<path fill-rule="evenodd" clip-rule="evenodd" d="M12.6105 0.334141C12.6049 0.339696 12.4784 0.351203 12.332 0.359536C10.2998 0.492066 7.95835 1.25748 5.92933 2.45461C4.63202 3.21963 3.64124 3.98227 2.65047 4.97862C1.98639 5.64762 1.50781 6.24083 1.09686 6.90149L1.04075 6.99208C0.887744 7.2387 0.835466 7.32296 0.844793 7.39974C0.849633 7.4396 0.871069 7.47743 0.903631 7.5349L0.925205 7.57326C1.1728 8.02204 1.64308 8.68587 2.04809 9.14893C4.13644 11.5547 7.29704 13.4292 10.4323 14.1295C10.8152 14.2144 11.3836 14.3128 11.6707 14.3442C11.7637 14.3525 11.8621 14.3668 11.8875 14.3723C12.1746 14.4259 14.0743 14.4485 14.6541 14.4061C17.3278 14.2085 20.2294 13.0566 22.6725 11.2269C23.6771 10.473 24.7411 9.43383 25.3826 8.58152C25.6049 8.28511 25.8584 7.90101 26.0241 7.61572L26.1562 7.38399L26.0241 7.14949C25.8299 6.81062 25.453 6.25432 25.2335 5.97775C24.8847 5.54009 24.2119 4.82863 23.7839 4.44176C23.5699 4.24971 23.4968 4.18781 23.2519 3.98148C21.414 2.43993 18.9629 1.19479 16.7646 0.686495C16.0918 0.531348 15.6896 0.460718 15.2027 0.407151C15.0834 0.394692 14.9612 0.37927 14.8853 0.369693L14.8852 0.369684L14.885 0.369661L14.8849 0.369641C14.857 0.36613 14.8355 0.363408 14.8226 0.361917C14.7241 0.342077 12.6302 0.316682 12.6105 0.333744V0.334141ZM14.1892 2.35251C15.585 2.5644 16.8601 3.3691 17.6369 4.52933C18.4193 5.70106 18.6811 7.05334 18.3939 8.46513C18.0957 9.94756 17.0207 11.3026 15.6162 11.9692C15.1151 12.2065 14.6314 12.3505 14.0935 12.4212C13.8146 12.4581 12.9931 12.4581 12.7819 12.4212C12.2104 12.3252 11.8955 12.2347 11.4506 12.0486C10.3926 11.6026 9.44688 10.713 8.92875 9.67694C8.64437 9.10397 8.52057 8.6917 8.40547 7.90367C8.38293 7.75686 8.38293 7.00572 8.40547 6.85891C8.52096 6.07961 8.64476 5.65623 8.92875 5.08563C9.65215 3.63733 11.1013 2.58702 12.6973 2.35807C12.7572 2.34921 12.8202 2.3396 12.8724 2.33163L12.8725 2.33162L12.8726 2.3316L12.8728 2.33157C12.921 2.32422 12.9599 2.31827 12.9789 2.31561C13.1169 2.29577 13.9807 2.32117 14.1892 2.35251ZM24.0087 7.16672C22.8831 5.70136 21.1634 4.33757 19.2356 3.38606L19.2352 3.38566L19.1998 3.36816C18.8914 3.21577 18.7735 3.15752 18.7597 3.1762C18.7511 3.18776 18.7824 3.22876 18.8331 3.29514L18.844 3.30948C19.5817 4.28083 20.0796 5.58549 20.1754 6.78818C20.3047 8.41146 19.8882 9.96174 18.9623 11.2858C18.8468 11.4521 18.757 11.5878 18.7653 11.5878C18.7993 11.5878 19.7703 11.0882 20.0686 10.9188C20.7916 10.5065 21.7175 9.85421 22.365 9.30663C22.9448 8.81262 24.0198 7.66628 24.1298 7.42067C24.1551 7.36988 24.1353 7.3306 24.0087 7.16672ZM7.95019 3.44823C7.49969 4.0835 7.15638 4.79773 6.95664 5.51236C6.58525 6.83368 6.61333 8.22842 7.04089 9.52752C7.24339 10.1485 7.62902 10.8969 7.98658 11.3683C8.05698 11.4615 8.11037 11.5405 8.10484 11.546C8.09337 11.5603 7.27741 11.148 6.98472 10.9842C5.43389 10.1005 4.0464 8.95415 3.09517 7.76536C2.97137 7.61299 2.85865 7.45745 2.84204 7.42094C2.81396 7.3646 2.84204 7.31936 3.08964 7.00867C3.62992 6.33372 4.54476 5.4699 5.36665 4.85447C5.71827 4.58902 6.46145 4.09779 6.81623 3.89185C7.10891 3.72242 8.06568 3.23119 8.07715 3.24507C8.08269 3.25063 8.02652 3.3411 7.95058 3.44823H7.95019ZM10.4607 6.59081C10.8068 5.32861 11.8652 4.42828 13.1625 4.29258H13.1621C13.4153 4.26679 13.9164 4.30646 14.1838 4.37709C14.3329 4.414 14.4622 4.44495 14.4709 4.44495C14.4796 4.44495 14.423 4.47867 14.3443 4.51835C14.0291 4.67945 13.7732 4.95602 13.6549 5.26393C13.5592 5.50121 13.5482 5.88253 13.6213 6.13093C13.7957 6.70707 14.3052 7.09672 14.8905 7.10228C15.2311 7.10545 15.4644 7.03205 15.7488 6.82294C15.9122 6.70152 16.1091 6.44439 16.1768 6.26107C16.2021 6.18489 16.2329 6.11466 16.2444 6.10315C16.2895 6.05236 16.4865 6.72136 16.5146 7.01498C16.6245 8.17243 16.1823 9.19458 15.2734 9.88063C15.0934 10.0159 14.6291 10.2588 14.4124 10.3294C13.9085 10.4933 13.2302 10.5215 12.7405 10.3973C12.3434 10.2953 12.0566 10.1683 11.7244 9.94531C11.0378 9.48503 10.5679 8.7704 10.4073 7.93198C10.3397 7.57883 10.365 6.93801 10.4607 6.59081Z" fill="black"/>
</svg>
