<svg width="25" height="25" viewBox="0 0 17 16" fill="none" xmlns="http://www.w3.org/2000/svg">
<path fill-rule="evenodd" clip-rule="evenodd" d="M11.0914 11.4505C10.9754 11.5663 10.8232 11.6243 10.6712 11.6243C10.5192 11.6243 10.3671 11.5663 10.2511 11.4505L8.85713 10.0587L7.46313 11.4505C7.34717 11.5663 7.19509 11.6243 7.04307 11.6243C6.89097 11.6243 6.73891 11.5663 6.62289 11.4505C6.39092 11.2188 6.39092 10.8432 6.623 10.6115L8.01696 9.21986L6.67254 7.87763C6.4406 7.64595 6.4406 7.2704 6.67254 7.03866C6.90465 6.80715 7.28076 6.80715 7.51286 7.03866L8.85721 8.38096L10.2016 7.03866C10.4336 6.80715 10.8099 6.80715 11.0419 7.03866C11.2739 7.2704 11.2739 7.64602 11.0418 7.87763L9.69743 9.21986L11.0914 10.6115C11.3233 10.8433 11.3233 11.2188 11.0914 11.4505ZM15.1602 11.6187L15.1604 11.6187L10.1048 2.96552L10.1047 2.9656C9.85414 2.53768 9.38944 2.25 8.85715 2.25C8.32486 2.25 7.86015 2.53768 7.6096 2.9656L7.60946 2.96552L2.56633 11.5974C2.56615 11.5977 2.56598 11.598 2.56579 11.5983L2.55392 11.6187L2.55404 11.6187C2.42908 11.8321 2.35715 12.0802 2.35715 12.3453C2.35715 13.1418 3.00384 13.7875 3.8016 13.7875H13.9127C14.7104 13.7875 15.3571 13.1418 15.3571 12.3453C15.3571 12.0802 15.2852 11.8321 15.1602 11.6187Z" fill="#E70002"/>
</svg>
