<svg width="25" height="25" viewBox="0 0 25 25" fill="none" xmlns="http://www.w3.org/2000/svg">
<path fill-rule="evenodd" clip-rule="evenodd" d="M13.3129 18.5114C13.0467 18.7286 12.7356 18.8375 12.3805 18.8375C12.0195 18.8375 11.7044 18.7301 11.4351 18.5153C11.1659 18.3007 11.0312 18.0006 11.0312 17.6148C11.0312 17.2778 11.1598 16.991 11.4172 16.7545C11.6747 16.5182 11.9901 16.4 12.3629 16.4C12.7356 16.4 13.0539 16.5182 13.3174 16.7545C13.5807 16.991 13.7125 17.2778 13.7125 17.6148C13.7125 17.9951 13.5793 18.2941 13.3129 18.5114ZM11.4172 6.54998C11.6613 6.30199 11.9813 6.17522 12.3719 6.1625C12.7622 6.17522 13.0822 6.30199 13.3263 6.54998C13.5835 6.81157 13.7125 7.17601 13.7125 7.64326C13.7125 7.98635 13.2063 14.2974 13.0822 14.5534C12.9577 14.8096 12.7357 14.9375 12.416 14.9375C12.4001 14.9375 12.3874 14.9331 12.3719 14.9323C12.3564 14.9331 12.3432 14.9375 12.3275 14.9375C12.0078 14.9375 11.7859 14.8096 11.6616 14.5534C11.5371 14.2974 11.0312 7.98635 11.0312 7.64326C11.0312 7.17601 11.1598 6.81157 11.4172 6.54998ZM12.25 2.75C6.86522 2.75 2.5 7.11525 2.5 12.5C2.5 17.8848 6.86522 22.25 12.25 22.25C17.6348 22.25 22 17.8848 22 12.5C22 7.11525 17.6348 2.75 12.25 2.75Z" fill="#FFCD0B"/>
</svg>
