<svg width="20" height="21" viewBox="0 0 20 21" fill="none" xmlns="http://www.w3.org/2000/svg">
<path fill-rule="evenodd" clip-rule="evenodd" d="M17.6172 5.26774H9.48044C9.23417 4.32386 8.38105 3.625 7.36693 3.625C6.35233 3.625 5.49969 4.32386 5.25342 5.26774H2.38278C2.10245 5.26774 1.875 5.49681 1.875 5.77873C1.875 6.06113 2.10245 6.28972 2.38278 6.28972H5.2296C5.44229 7.28075 6.31946 8.02604 7.36693 8.02604C8.41439 8.02604 9.29157 7.28075 9.50378 6.28972H17.6172C17.898 6.28972 18.125 6.06113 18.125 5.77873C18.125 5.49681 17.898 5.26774 17.6172 5.26774ZM17.6172 10.1376H15.0848C14.8385 9.19368 13.9859 8.49435 12.9713 8.49435C11.9567 8.49435 11.104 9.19392 10.8578 10.1376H2.38278C2.10245 10.1376 1.875 10.3662 1.875 10.6486C1.875 10.931 2.10245 11.1595 2.38278 11.1595H10.8344C11.0471 12.1501 11.9243 12.8954 12.9713 12.8954C14.019 12.8954 14.8959 12.1501 15.1086 11.1595H17.6172C17.898 11.1595 18.125 10.931 18.125 10.6486C18.125 10.3662 17.898 10.1376 17.6172 10.1376ZM11.7733 14.832H17.6172C17.898 14.832 18.125 15.0606 18.125 15.343C18.125 15.6254 17.898 15.854 17.6172 15.854H11.7966C11.5839 16.8445 10.7072 17.5898 9.65978 17.5898C8.61231 17.5898 7.73514 16.8445 7.52245 15.854H2.38278C2.10245 15.854 1.875 15.6254 1.875 15.343C1.875 15.0606 2.10245 14.832 2.38278 14.832H7.54579C7.79206 13.8883 8.64518 13.1888 9.65978 13.1888C10.6744 13.1888 11.527 13.8881 11.7733 14.832Z" fill="black"/>
</svg>
