<svg width="16" height="18" viewBox="0 0 16 18" fill="none" xmlns="http://www.w3.org/2000/svg">
<path d="M7.92249 0.879862C7.91842 0.883927 7.81883 0.892057 7.70095 0.898155C6.72738 0.955065 5.66235 1.24571 4.72131 1.70709C4.12172 2.0018 3.51604 2.4022 2.99775 2.84529C2.7945 3.02008 2.25182 3.57089 2.08109 3.7782C1.44899 4.54039 0.963219 5.38998 0.658344 6.25785C0.617694 6.37574 0.577044 6.49362 0.566882 6.52208C0.483549 6.75581 0.337209 7.36963 0.282332 7.72125C0.272169 7.79442 0.257942 7.87165 0.253877 7.89604C0.249812 7.92043 0.239649 8.0119 0.231519 8.09929C0.223389 8.18669 0.209162 8.32897 0.201032 8.4123C0.178675 8.65213 0.184772 9.39196 0.213227 9.69277C0.249812 10.0891 0.259974 10.1602 0.314852 10.4651C0.615661 12.1013 1.37582 13.5484 2.54857 14.7252C2.99165 15.1683 3.32498 15.4468 3.77823 15.7496C3.88392 15.8187 3.9957 15.8939 4.02619 15.9142C4.24773 16.0667 4.89204 16.3919 5.26398 16.5382C5.90015 16.7923 6.37169 16.9203 7.0912 17.0402C7.53022 17.1114 8.43874 17.148 8.91028 17.1094C10.6704 16.9711 12.3046 16.2943 13.6155 15.1622C13.8147 14.9915 14.0423 14.7699 14.0423 14.7496C14.0423 14.7395 13.5606 14.2517 12.9732 13.6643L11.9042 12.5952L11.8188 12.6744C11.6684 12.8208 11.6155 12.8655 11.4509 12.9935C11.0708 13.2923 10.7375 13.4874 10.2212 13.7131C9.94889 13.833 9.43264 13.9712 9.0424 14.0301C8.75988 14.0748 8.06273 14.0891 7.78021 14.0565C6.80258 13.9488 5.84731 13.5525 5.11155 12.9488C4.19489 12.1988 3.55465 11.144 3.33514 10.018C3.25384 9.60537 3.23962 9.4631 3.23962 9.01188C3.23962 8.53222 3.25791 8.35132 3.34531 7.93669C3.55059 6.96719 4.00993 6.12371 4.72131 5.41436C5.21114 4.92453 5.72333 4.57901 6.33918 4.31682C6.68267 4.17048 7.1603 4.03633 7.53835 3.98145C7.62168 3.96926 7.71314 3.953 7.7416 3.9469C7.77005 3.9408 7.98956 3.93471 8.2294 3.93064C8.57492 3.92454 8.72736 3.93267 8.9611 3.96316C10.0282 4.10544 10.9428 4.53226 11.7497 5.26396L11.9082 5.40623L9.84726 7.46719L12.4184 7.47328C14.2618 7.47735 15.022 7.47328 15.1094 7.45702C15.4834 7.38589 15.8025 7.08305 15.9021 6.70297C15.9265 6.61151 15.9326 6.17249 15.9326 3.98552V1.37782L14.9976 2.31481L14.0606 3.25179L13.8635 3.0648C12.9326 2.18879 11.7659 1.53026 10.516 1.17661C9.80458 0.97539 9.11353 0.879862 8.32899 0.875797C8.10948 0.873765 7.92655 0.875797 7.92249 0.879862Z" fill="black"/>
</svg>
