<svg width="20" height="22" viewBox="0 0 20 22" fill="none" xmlns="http://www.w3.org/2000/svg">
<path fill-rule="evenodd" clip-rule="evenodd" d="M17.6172 6.26774H9.48044C9.23417 5.32386 8.38105 4.625 7.36693 4.625C6.35233 4.625 5.49969 5.32386 5.25342 6.26774H2.38278C2.10245 6.26774 1.875 6.49681 1.875 6.77873C1.875 7.06113 2.10245 7.28972 2.38278 7.28972H5.2296C5.44229 8.28075 6.31946 9.02604 7.36693 9.02604C8.41439 9.02604 9.29157 8.28075 9.50378 7.28972H17.6172C17.898 7.28972 18.125 7.06113 18.125 6.77873C18.125 6.49681 17.898 6.26774 17.6172 6.26774ZM17.6172 11.1376H15.0848C14.8385 10.1937 13.9859 9.49435 12.9713 9.49435C11.9567 9.49435 11.104 10.1939 10.8578 11.1376H2.38278C2.10245 11.1376 1.875 11.3662 1.875 11.6486C1.875 11.931 2.10245 12.1595 2.38278 12.1595H10.8344C11.0471 13.1501 11.9243 13.8954 12.9713 13.8954C14.019 13.8954 14.8959 13.1501 15.1086 12.1595H17.6172C17.898 12.1595 18.125 11.931 18.125 11.6486C18.125 11.3662 17.898 11.1376 17.6172 11.1376ZM11.7733 15.832H17.6172C17.898 15.832 18.125 16.0606 18.125 16.343C18.125 16.6254 17.898 16.854 17.6172 16.854H11.7966C11.5839 17.8445 10.7072 18.5898 9.65978 18.5898C8.61231 18.5898 7.73514 17.8445 7.52245 16.854H2.38278C2.10245 16.854 1.875 16.6254 1.875 16.343C1.875 16.0606 2.10245 15.832 2.38278 15.832H7.54579C7.79206 14.8883 8.64518 14.1888 9.65978 14.1888C10.6744 14.1888 11.527 14.8881 11.7733 15.832Z" fill="#F16E00"/>
</svg>
